<?xml version="1.0" encoding="utf-8"?>
<!-- Generator: Adobe Illustrator 27.1.1, SVG Export Plug-In . SVG Version: 6.00 Build 0)  -->
<svg version="1.1" id="Layer_1" xmlns="http://www.w3.org/2000/svg" xmlns:xlink="http://www.w3.org/1999/xlink" x="0px" y="0px"
	 viewBox="0 0 65.7 30.1" style="enable-background:new 0 0 65.7 30.1;" xml:space="preserve">
<style type="text/css">
	.st0{fill:#5D1F36;}
	.st1{fill:#A7A9AC;stroke:#5D1F36;stroke-width:2;stroke-miterlimit:10;}
	.st2{fill:#FFFFFF;}
	.st3{fill:none;}
	.st4{fill:#B0B1B1;stroke:#5D1F36;stroke-width:2;stroke-miterlimit:10;}
	.st5{fill:#D1D3D4;}
</style>
<g>
	<path class="st0" d="M15.7,26c0.3-0.1,0.7-0.2,1.1-0.4c0.6-0.3,0.8-0.6,0.7-0.8c-0.1-0.2-0.4-0.1-1,0.1c-0.8,0.3-1.3,0.4-1.4,0.1
		c-0.2-0.3,0.2-0.8,1.1-1.3c0.4-0.2,0.8-0.4,1-0.4l0,0.3c-0.2,0-0.5,0.1-0.9,0.4c-0.6,0.3-0.7,0.6-0.6,0.8c0.1,0.2,0.4,0.1,1.1-0.1
		c0.8-0.3,1.2-0.3,1.4,0c0.2,0.3-0.2,0.8-1.1,1.4c-0.4,0.2-0.9,0.4-1.2,0.5C15.7,26.3,15.7,26,15.7,26z"/>
	<path class="st0" d="M18.9,22.3L17.6,23l-0.1-0.2l3.1-1.8l0.1,0.2L19.4,22l1,1.7L19.9,24C19.9,24,18.9,22.3,18.9,22.3z"/>
	<path class="st0" d="M22,22L22,22.8l-0.6,0.3l0.3-2.8l0.7-0.4l2.5,1.1l-0.6,0.3l-0.8-0.4L22,22L22,22z M23.3,21l-0.7-0.3
		c-0.2-0.1-0.3-0.1-0.4-0.2h0c0,0.2,0,0.3,0,0.5l-0.1,0.8L23.3,21L23.3,21z"/>
	<path class="st0" d="M24.4,18.8c0.3-0.2,0.6-0.4,1-0.6c0.6-0.3,1-0.5,1.3-0.5c0.3,0,0.5,0,0.5,0.2c0.1,0.3-0.1,0.6-0.5,1l0,0
		c0.4-0.1,0.6-0.1,0.8,0c0.3,0.2,0.5,0.3,0.6,0.3l-0.6,0.3c-0.1,0-0.3-0.1-0.5-0.3c-0.3-0.2-0.6-0.2-1.1,0.1l-0.5,0.3l0.5,0.8
		l-0.5,0.3L24.4,18.8L24.4,18.8z M25.5,19.4l0.6-0.3c0.6-0.3,0.9-0.7,0.7-0.9c-0.1-0.2-0.6-0.1-1.2,0.2c-0.3,0.1-0.4,0.3-0.5,0.3
		L25.5,19.4L25.5,19.4z"/>
	<path class="st0" d="M28.8,16.6l-1.3,0.7l-0.1-0.2l3.1-1.8l0.1,0.2l-1.3,0.7l1,1.7l-0.5,0.3C29.8,18.3,28.8,16.6,28.8,16.6z"/>
</g>
<g>
	<path class="st0" d="M46.7,25c0.3-0.2,0.7-0.4,1-0.6c0.6-0.3,1-0.5,1.3-0.5c0.3,0,0.5,0,0.5,0.2c0.2,0.3-0.1,0.6-0.5,1l0,0
		c0.3-0.1,0.6-0.1,0.8,0c0.3,0.2,0.5,0.3,0.6,0.3L50,25.7c-0.1,0-0.3-0.1-0.5-0.3c-0.3-0.2-0.6-0.2-1.1,0.1l-0.5,0.3l0.5,0.8
		l-0.5,0.3L46.7,25L46.7,25z M47.8,25.6l0.6-0.3c0.6-0.3,0.9-0.7,0.7-0.9c-0.1-0.2-0.6-0.1-1.2,0.2c-0.3,0.1-0.4,0.3-0.5,0.3
		L47.8,25.6L47.8,25.6z"/>
	<path class="st0" d="M52.8,22.8l-1.6,1l0.4,0.7l1.8-1l0.1,0.2L51.2,25l-1.1-1.9l2.3-1.3l0.1,0.2l-1.7,1l0.3,0.6l1.6-1L52.8,22.8
		L52.8,22.8z"/>
	<path class="st0" d="M54,23c0.3-0.1,0.7-0.2,1-0.4c0.6-0.3,0.8-0.6,0.7-0.8c-0.1-0.2-0.4-0.1-1,0.1c-0.8,0.3-1.3,0.4-1.4,0.1
		c-0.2-0.3,0.2-0.8,1.1-1.3c0.4-0.2,0.8-0.4,1-0.4l0,0.3c-0.2,0-0.5,0.1-0.8,0.4c-0.6,0.3-0.7,0.6-0.6,0.8c0.1,0.2,0.4,0.1,1-0.1
		c0.8-0.3,1.2-0.3,1.4,0c0.2,0.3-0.2,0.8-1.2,1.4c-0.4,0.2-0.9,0.4-1.2,0.5L54,23z"/>
	<path class="st0" d="M59,19.3l-1.6,1l0.4,0.7l1.8-1l0.1,0.2l-2.4,1.4l-1.1-1.9l2.3-1.3l0.1,0.2l-1.7,1l0.3,0.6l1.6-1L59,19.3
		L59,19.3z"/>
	<path class="st0" d="M60.3,17.4L59,18.2L58.9,18l3.1-1.8l0.1,0.2l-1.3,0.7l1,1.7l-0.5,0.3C61.3,19.1,60.3,17.4,60.3,17.4z"/>
</g>
<g>
	<g>
		<path class="st1" d="M38.9,16l16.9-9.7c2.3-1.4,5.4-0.6,6.7,1.8l0.1,0.2c1.3,2.2,0.5,5-1.7,6.3l-17.2,9.9c-2.2,1.3-5,0.5-6.3-1.7
			l-0.3-0.5C36,20.1,36.8,17.3,38.9,16L38.9,16L38.9,16z"/>
		<path class="st2" d="M38.2,21.9c0.4-2.2,1.4-2.6,3.2-3.8c5.5-3.2,11.6-6.6,17.2-9.8C59.1,8.2,59.6,8,60,8c0.6,0,1.1,0.2,1.1,0.2
			l0.2,0l0.2,0.1C59.8,6,57.7,6.4,56.6,7l-16.9,9.7c-1.5,0.7-2.9,2.6-1.7,4.9"/>
	</g>
	<g>
		<path class="st1" d="M39.5,14.6l16.9-9.7c2.4-1.4,5.4-0.6,6.7,1.8l0.1,0.2c1.3,2.2,0.5,5-1.7,6.3L44.4,23c-2.2,1.3-5,0.5-6.3-1.7
			l-0.3-0.5C36.6,18.7,37.3,15.9,39.5,14.6L39.5,14.6L39.5,14.6z"/>
		<path class="st2" d="M38.8,20.5c0.4-2.2,1.4-2.5,3.2-3.8c5.5-3.2,11.6-6.6,17.2-9.8c0.5-0.2,1-0.3,1.4-0.3c0.6,0,1.1,0.2,1.1,0.2
			l0.2,0.1l0.2,0.1c-1.7-2.3-3.8-1.9-4.9-1.4l-16.9,9.7c-1.5,0.7-2.9,2.6-1.7,4.8"/>
	</g>
</g>
<g>
	<path class="st3" d="M28.5,13.6l-17.2,9.9c-2.2,1.3-5,0.5-6.3-1.7l-0.3-0.5c-1.3-2.2-0.5-5,1.7-6.3l16.9-9.7
		c2.3-1.4,5.4-0.5,6.7,1.8l0.1,0.2C31.4,9.5,30.7,12.3,28.5,13.6z"/>
	<path class="st3" d="M28.5,13.6l-17.2,9.9c-2.2,1.3-5,0.5-6.3-1.7l-0.3-0.5c-1.3-2.2-0.5-5,1.7-6.3l16.9-9.7
		c2.3-1.4,5.4-0.5,6.7,1.8l0.1,0.2C31.4,9.5,30.7,12.3,28.5,13.6z"/>
	<g>
		<path class="st4" d="M6.5,15.1l16.9-9.7c2.3-1.4,5.4-0.5,6.7,1.8l0.1,0.2c1.3,2.2,0.5,5-1.7,6.3l-17.2,9.9c-2.2,1.3-5,0.5-6.3-1.7
			l-0.3-0.5C3.5,19.2,4.3,16.4,6.5,15.1L6.5,15.1L6.5,15.1z"/>
		<path class="st2" d="M5.8,21c0.4-2.2,1.4-2.5,3.2-3.8c5.5-3.2,11.6-6.6,17.2-9.8c0.5-0.2,1-0.3,1.4-0.3c0.6,0,1.1,0.2,1.1,0.2
			l0.2,0.1l0.2,0.1c-1.7-2.3-3.8-1.9-4.9-1.4L7.3,15.8c-1.5,0.7-2.9,2.6-1.7,4.9"/>
	</g>
	<path class="st3" d="M28.5,12.1L11.3,22c-2.2,1.3-5,0.5-6.3-1.7l-0.3-0.5c-1.3-2.2-0.5-5,1.7-6.3l16.9-9.7c2.3-1.4,5.4-0.5,6.7,1.8
		l0.1,0.2C31.4,8.1,30.7,10.9,28.5,12.1z"/>
	<path class="st3" d="M28.5,12.1L11.3,22c-2.2,1.3-5,0.5-6.3-1.7l-0.3-0.5c-1.3-2.2-0.5-5,1.7-6.3l16.9-9.7c2.3-1.4,5.4-0.5,6.7,1.8
		l0.1,0.2C31.4,8.1,30.7,10.9,28.5,12.1z"/>
	<path class="st5" d="M5.8,21c0.4-2.2,1.4-2.5,3.2-3.8c5.5-3.2,11.6-6.6,17.2-9.8c0.5-0.2,1-0.3,1.4-0.3c0.6,0,1.1,0.2,1.1,0.2
		l0.2,0.1l0.2,0.1c-1.7-2.3-3.8-1.9-4.9-1.4L7.3,15.8c-1.5,0.7-2.9,2.6-1.7,4.9"/>
</g>
</svg>
