<?xml version="1.0" encoding="UTF-8"?>
<svg id="Layer_1" data-name="Layer 1" xmlns="http://www.w3.org/2000/svg" viewBox="0 0 62.51 24.39">
  <defs>
    <style>
      .cls-1 {
        fill: #b0b1b1;
      }

      .cls-1, .cls-2, .cls-3 {
        stroke: #5d1f36;
        stroke-miterlimit: 10;
      }

      .cls-1, .cls-3 {
        stroke-width: 2px;
      }

      .cls-4 {
        fill: #fff;
      }

      .cls-2, .cls-5 {
        fill: #5d1f36;
      }

      .cls-6 {
        fill: none;
      }

      .cls-3 {
        fill: #a7a9ac;
      }

      .cls-7 {
        fill: #d1d3d4;
      }
    </style>
  </defs>
  <path class="cls-2" d="m.61,17c.31.89,2.27,4.22,2.88,4.61,1.9.94,4.18-.25,4.71-.41,6.29-3.6,15.68-8.99,17.94-10.47,4.39-2.51,1.08-6.94.82-7.48"/>
  <path class="cls-6" d="m59,11.41l-17.16,9.91c-2.2,1.26-5,.51-6.27-1.68l-.28-.49c-1.27-2.2-.52-5,1.68-6.27L53.84,3.14c2.35-1.36,5.36-.55,6.72,1.8l.12.2c1.26,2.2.51,5-1.68,6.27Z"/>
  <path class="cls-6" d="m59,11.41l-17.16,9.91c-2.2,1.26-5,.51-6.27-1.68l-.28-.49c-1.27-2.2-.52-5,1.68-6.27L53.84,3.14c2.35-1.36,5.36-.55,6.72,1.8l.12.2c1.26,2.2.51,5-1.68,6.27Z"/>
  <path class="cls-4" d="m2.16,18.4c.4-2.23,1.4-2.55,3.22-3.78,5.52-3.19,11.6-6.58,17.16-9.77.51-.17.98-.33,1.42-.33.6,0,1.11.2,1.11.2l.19.05.2.08c-1.69-2.32-3.82-1.9-4.92-1.37L3.67,13.21c-1.47.66-2.94,2.65-1.67,4.85"/>
  <g>
    <path class="cls-5" d="m11.6,23.59c.28-.07.67-.22,1.05-.44.56-.32.8-.64.69-.84-.1-.18-.39-.15-1.02.07-.75.29-1.27.37-1.43.09-.17-.3.24-.84,1.06-1.31.43-.25.77-.38.99-.44l-.03.29c-.16.04-.47.15-.85.37-.57.33-.7.62-.63.75.1.18.41.12,1.05-.11.79-.29,1.24-.34,1.4-.05.17.3-.16.83-1.15,1.41-.41.24-.88.44-1.15.5l.02-.29Z"/>
    <path class="cls-5" d="m14.74,19.89l-1.28.74-.12-.21,3.12-1.8.12.21-1.29.74.99,1.72-.55.32-.99-1.72Z"/>
    <path class="cls-5" d="m17.9,19.55l-.09.86-.56.32.32-2.76.66-.38,2.55,1.1-.58.34-.8-.35-1.49.86Zm1.27-.99l-.73-.32c-.17-.07-.3-.15-.42-.23h-.01c0,.16,0,.31-.01.48l-.09.8,1.27-.73Z"/>
    <path class="cls-5" d="m20.29,16.43c.26-.18.65-.43,1.02-.64.58-.33.98-.5,1.31-.55.26-.04.46.03.54.18.15.26-.1.63-.51.95h0c.35-.13.63-.1.84.04.29.19.5.32.63.34l-.56.33c-.1-.01-.29-.13-.55-.3-.28-.19-.56-.17-1.06.11l-.51.3.48.84-.54.31-1.1-1.91Zm1.05.57l.56-.32c.58-.33.87-.69.74-.92-.14-.25-.6-.13-1.18.2-.26.15-.44.27-.52.33l.41.71Z"/>
    <path class="cls-5" d="m24.62,14.19l-1.28.74-.12-.21,3.12-1.8.12.21-1.29.74.99,1.72-.55.32-.99-1.72Z"/>
  </g>
  <g>
    <path class="cls-5" d="m45.41,22.49c.26-.18.65-.43,1.02-.64.58-.33.98-.5,1.31-.55.26-.04.46.03.54.18.15.26-.1.63-.51.95h0c.35-.13.63-.1.84.04.29.19.5.32.63.34l-.56.33c-.1-.02-.29-.13-.55-.3-.28-.19-.56-.17-1.06.11l-.51.3.48.84-.54.31-1.1-1.91Zm1.05.57l.56-.32c.58-.34.87-.7.74-.92-.14-.25-.6-.13-1.18.2-.26.15-.44.27-.52.33l.41.71Z"/>
    <path class="cls-5" d="m51.53,20.29l-1.64.95.4.7,1.83-1.05.12.21-2.37,1.37-1.12-1.93,2.27-1.31.12.21-1.73,1,.35.61,1.64-.95.12.21Z"/>
    <path class="cls-5" d="m52.7,20.42c.28-.07.67-.22,1.05-.44.56-.32.8-.64.69-.84-.1-.18-.39-.15-1.02.07-.75.28-1.27.37-1.43.09-.17-.3.24-.84,1.06-1.31.43-.25.77-.38.99-.44l-.03.29c-.16.04-.47.15-.85.37-.57.33-.7.62-.63.75.1.18.41.12,1.05-.11.79-.29,1.24-.34,1.4-.05.17.3-.16.83-1.15,1.41-.41.23-.88.44-1.15.5l.02-.29Z"/>
    <path class="cls-5" d="m57.69,16.73l-1.64.95.4.7,1.83-1.05.12.21-2.37,1.37-1.12-1.93,2.27-1.31.12.21-1.73,1,.35.61,1.64-.95.12.21Z"/>
    <path class="cls-5" d="m59.01,14.88l-1.28.74-.12-.21,3.12-1.8.12.21-1.29.74.99,1.72-.55.32-.99-1.72Z"/>
  </g>
  <path class="cls-6" d="m59,9.93l-17.16,9.91c-2.2,1.26-5,.51-6.27-1.68l-.28-.49c-1.27-2.2-.52-5,1.68-6.27L53.84,1.66c2.35-1.36,5.36-.55,6.72,1.8l.12.2c1.26,2.2.51,5-1.68,6.27Z"/>
  <path class="cls-6" d="m59,9.93l-17.16,9.91c-2.2,1.26-5,.51-6.27-1.68l-.28-.49c-1.27-2.2-.52-5,1.68-6.27L53.84,1.66c2.35-1.36,5.36-.55,6.72,1.8l.12.2c1.26,2.2.51,5-1.68,6.27Z"/>
  <path class="cls-7" d="m36.26,18.77c.4-2.23,1.4-2.55,3.22-3.78,5.52-3.19,11.6-6.58,17.16-9.77.51-.17.98-.33,1.42-.33.6,0,1.11.2,1.11.2l.19.05.2.08c-1.69-2.32-3.82-1.9-4.92-1.37l-16.87,9.74c-1.47.66-2.94,2.65-1.67,4.85"/>
  <g>
    <path class="cls-2" d="m34.22,17.89c.31.89,2.27,4.22,2.88,4.61,1.9.94,4.18-.25,4.71-.41,6.29-3.6,15.68-8.99,17.94-10.47,4.39-2.51,1.08-6.94.82-7.48"/>
    <path class="cls-4" d="m35.77,19.28c.4-2.23,1.4-2.55,3.22-3.78,5.52-3.19,11.6-6.58,17.16-9.77.51-.17.98-.33,1.42-.33.6,0,1.11.2,1.11.2l.19.05.2.08c-1.69-2.32-3.82-1.9-4.92-1.37l-16.87,9.74c-1.47.66-2.94,2.65-1.67,4.85"/>
    <g>
      <path class="cls-3" d="m36.25,11.4L53.12,1.66c2.35-1.36,5.36-.55,6.71,1.8l.12.21c1.27,2.19.51,5-1.68,6.27l-17.16,9.91c-2.19,1.27-5,.51-6.27-1.68l-.28-.49c-1.27-2.19-.51-5,1.68-6.27h0Z"/>
      <path class="cls-4" d="m35.54,17.29c.4-2.23,1.4-2.55,3.22-3.78,5.52-3.19,11.6-6.58,17.16-9.77.51-.17.98-.33,1.42-.33.6,0,1.11.2,1.11.2l.19.05.2.08c-1.69-2.32-3.82-1.9-4.92-1.37l-16.87,9.74c-1.47.66-2.94,2.65-1.67,4.85"/>
    </g>
  </g>
  <g>
    <path class="cls-6" d="m25.33,10.67l-17.16,9.91c-2.2,1.26-5,.51-6.27-1.68l-.28-.49c-1.27-2.2-.52-5,1.68-6.27L20.17,2.4c2.35-1.36,5.36-.55,6.72,1.8l.12.2c1.26,2.2.51,5-1.68,6.27Z"/>
    <path class="cls-6" d="m25.33,10.67l-17.16,9.91c-2.2,1.26-5,.51-6.27-1.68l-.28-.49c-1.27-2.2-.52-5,1.68-6.27L20.17,2.4c2.35-1.36,5.36-.55,6.72,1.8l.12.2c1.26,2.2.51,5-1.68,6.27Z"/>
    <g>
      <path class="cls-1" d="m3.29,12.14L20.17,2.4c2.35-1.36,5.36-.55,6.71,1.8l.12.21c1.27,2.19.51,5-1.68,6.27l-17.16,9.91c-2.19,1.27-5,.51-6.27-1.68l-.28-.49c-1.27-2.19-.51-5,1.68-6.27h0Z"/>
      <path class="cls-4" d="m2.58,18.03c.4-2.23,1.4-2.55,3.22-3.78,5.52-3.19,11.6-6.58,17.16-9.77.51-.17.98-.33,1.42-.33.6,0,1.11.2,1.11.2l.19.05.2.08c-1.69-2.32-3.82-1.9-4.92-1.37L4.1,12.84c-1.47.66-2.94,2.65-1.67,4.85"/>
    </g>
    <path class="cls-6" d="m25.33,9.19l-17.16,9.91c-2.2,1.26-5,.51-6.27-1.68l-.28-.49c-1.27-2.2-.52-5,1.68-6.27L20.17.92c2.35-1.36,5.36-.55,6.72,1.8l.12.2c1.26,2.2.51,5-1.68,6.27Z"/>
    <path class="cls-6" d="m25.33,9.19l-17.16,9.91c-2.2,1.26-5,.51-6.27-1.68l-.28-.49c-1.27-2.2-.52-5,1.68-6.27L20.17.92c2.35-1.36,5.36-.55,6.72,1.8l.12.2c1.26,2.2.51,5-1.68,6.27Z"/>
    <path class="cls-7" d="m2.58,18.03c.4-2.23,1.4-2.55,3.22-3.78,5.52-3.19,11.6-6.58,17.16-9.77.51-.17.98-.33,1.42-.33.6,0,1.11.2,1.11.2l.19.05.2.08c-1.69-2.32-3.82-1.9-4.92-1.37L4.1,12.84c-1.47.66-2.94,2.65-1.67,4.85"/>
  </g>
</svg>