<?xml version="1.0" encoding="utf-8"?>
<!-- Generator: Adobe Illustrator 27.1.1, SVG Export Plug-In . SVG Version: 6.00 Build 0)  -->
<svg version="1.1" id="Layer_1" xmlns="http://www.w3.org/2000/svg" xmlns:xlink="http://www.w3.org/1999/xlink" x="0px" y="0px"
	 viewBox="0 0 267 284.3" style="enable-background:new 0 0 267 284.3;" xml:space="preserve">
<style type="text/css">
	.st0{fill:#FFE2B0;}
	.st1{fill:none;stroke:#5D1E36;stroke-width:6.5424;stroke-miterlimit:10;}
	.st2{fill:none;stroke:#5D1E36;stroke-width:7.0033;stroke-miterlimit:10;}
	.st3{fill:#231F20;stroke:#5D1E36;stroke-width:5.1404;stroke-miterlimit:10;}
	.st4{fill:#231F20;stroke:#5D1E36;stroke-width:5.5026;stroke-miterlimit:10;}
	.st5{fill:none;stroke:#5D1E36;stroke-width:7.0032;stroke-miterlimit:10;}
	.st6{fill:none;stroke:#5D1E36;stroke-width:6.9838;stroke-miterlimit:10;}
	.st7{fill:#B0B0B0;stroke:#5D1E36;stroke-width:1.0165;stroke-miterlimit:10;}
	.st8{fill:#B0B0B0;stroke:#5D1E36;stroke-miterlimit:10;}
	.st9{fill:#5D1E36;}
	.st10{fill:#B0B0B0;stroke:#5D1E36;stroke-width:1.012;stroke-miterlimit:10;}
	.st11{fill:#B0B0B0;stroke:#5D1E36;stroke-width:1.0098;stroke-miterlimit:10;}
	.st12{fill:#B0B0B0;stroke:#5D1E36;stroke-width:1.0035;stroke-miterlimit:10;}
	.st13{fill:none;stroke:#5D1E36;stroke-miterlimit:10;}
</style>
<polygon class="st0" points="3.5,26.4 23.1,5.4 243.2,5.4 263.5,23.7 263.5,226.5 242.1,246.2 219.5,246.2 219.5,252.6 233.9,269.3 
	233.9,273.2 226.1,274.7 192.7,252.6 186.6,246.6 24.2,246.9 3.5,226.5 "/>
<line class="st1" x1="19.7" y1="5.7" x2="245.8" y2="5.4"/>
<line class="st2" x1="20.3" y1="246.9" x2="190" y2="246.3"/>
<line class="st2" x1="216.8" y1="246.3" x2="247.1" y2="246.2"/>
<rect x="248.6" y="10.8" class="st3" width="1.5" height="1.3"/>
<rect x="255.6" y="16.8" class="st3" width="1.5" height="1.3"/>
<rect x="192.7" y="252.6" class="st4" width="1.5" height="1.5"/>
<rect x="199.7" y="257.2" class="st4" width="1.5" height="1.5"/>
<rect x="206.7" y="261.3" class="st4" width="1.5" height="1.5"/>
<rect x="213.1" y="266.2" class="st4" width="1.5" height="1.5"/>
<rect x="9" y="232.8" class="st4" width="1.5" height="1.5"/>
<rect x="15.9" y="239.7" class="st4" width="1.5" height="1.5"/>
<rect x="256.5" y="232" class="st4" width="1.5" height="1.5"/>
<rect x="249.5" y="238.8" class="st4" width="1.5" height="1.5"/>
<rect x="15.9" y="11.1" class="st1" width="1.5" height="1.3"/>
<rect x="8.9" y="17.2" class="st1" width="1.5" height="1.3"/>
<line class="st5" x1="263.5" y1="20.1" x2="263.5" y2="230"/>
<line class="st6" x1="3.5" y1="21.2" x2="3.5" y2="230"/>
<g>
	<g>
		<path class="st7" d="M137.6,42.9V25.9c0-2.5,2-4.5,4.5-4.5h16.9c2.5,0,4.5,2,4.5,4.5v16.9c0,2.5-2,4.5-4.5,4.5h-16.9
			C139.6,47.4,137.6,45.4,137.6,42.9z"/>
		<polyline class="st8" points="148.2,29 154,34.8 148.2,40.6 		"/>
	</g>
	<g>
		<path class="st7" d="M61.4,47.4l-16.9,0c-2.5,0-4.5-2-4.5-4.5l0-16.9c0-2.5,2-4.5,4.5-4.5l16.9,0c2.5,0,4.5,2,4.5,4.5l0,16.9
			C66,45.4,63.9,47.4,61.4,47.4z"/>
		<polyline class="st8" points="46.8,37.3 52.6,31.5 58.5,37.3 		"/>
	</g>
	<g>
		<path class="st9" d="M75.2,26.4h2v10h-2V26.4z M77.2,36.4h4v2h-4V36.4z M81.2,26.4h2v10h-2V26.4z"/>
		<path class="st9" d="M85.2,26.4h6v2h-4v4h4v2h-4v4h-2V26.4z M91.2,28.4h2v4h-2V28.4z"/>
	</g>
	<g>
		<path class="st9" d="M173.6,26.4h6v2h-4v4h4v2h-4v4h-2V26.4z M179.6,28.4h2v4h-2V28.4z M179.6,34.4h2v4h-2V34.4z"/>
		<path class="st9" d="M183.6,26.4h6v2h-2v8h2v2h-6v-2h2v-8h-2V26.4z"/>
		<path class="st9" d="M191.6,26.4h8v4h-2v-2h-4v8h4v-2h-2v-2h4v6h-8V26.4z"/>
		<path class="st9" d="M201.6,26.4h2v4h4v-4h2v12h-2v-6h-4v6h-2V26.4z"/>
		<path class="st9" d="M211.6,26.4h10v2h-4v10h-2v-10h-4V26.4z"/>
	</g>
	<g>
		<path class="st7" d="M163.6,61.9v16.9c0,2.5-2,4.5-4.5,4.5h-16.9c-2.5,0-4.5-2-4.5-4.5V61.9c0-2.5,2-4.5,4.5-4.5h16.9
			C161.6,57.4,163.6,59.4,163.6,61.9z"/>
		<polyline class="st8" points="153.2,76.1 147.4,70.3 153.2,64.5 		"/>
	</g>
	<g>
		<path class="st7" d="M44.5,57.4l16.9,0c2.5,0,4.5,2,4.5,4.5l0,16.9c0,2.5-2,4.5-4.5,4.5l-16.9,0c-2.5,0-4.5-2-4.5-4.5l0-16.9
			C40,59.4,42,57.4,44.5,57.4z"/>
		<polyline class="st8" points="58.5,68 52.6,73.8 46.8,68 		"/>
	</g>
	<g>
		<path class="st9" d="M75.2,62.4h6v2h-4v8h4v2h-6V62.4z M81.2,64.4h2v8h-2V64.4z"/>
		<path class="st9" d="M85.2,64.4h2v8h-2V64.4z M87.2,62.4h4v2h-4V62.4z M87.2,72.4h4v2h-4V72.4z M91.2,64.4h2v8h-2V64.4z"/>
		<path class="st9" d="M95.2,62.4h2v8h2v2h-2v2h-2V62.4z M99.2,68.4h2v2h-2V68.4z M103.2,62.4h2v12h-2v-2h-2v-2h2V62.4z"/>
		<path class="st9" d="M107.2,62.4h2v2h2v2h-2v8h-2V62.4z M111.2,66.4h2v4h-2V66.4z M115.2,62.4h2v12h-2v-2h-2v-2h2V62.4z"/>
	</g>
	<g>
		<path class="st9" d="M173.6,62.4h2v10h4v2h-6V62.4z"/>
		<path class="st9" d="M181.6,62.4h8v2h-6v2h4v2h-4v4h6v2h-8V62.4z"/>
		<path class="st9" d="M191.6,62.4h8v2h-6v2h4v2h-4v6h-2V62.4z"/>
		<path class="st9" d="M201.6,62.4h10v2h-4v10h-2v-10h-4V62.4z"/>
	</g>
	<g>
		<path class="st8" d="M40,114.9V97.9c0-2.5,2-4.5,4.5-4.5h16.9c2.5,0,4.5,2,4.5,4.5l0,16.9c0,2.5-2,4.5-4.5,4.5H44.5
			C42,119.4,40,117.4,40,114.9z"/>
		<line class="st8" x1="48.5" y1="105.4" x2="57.5" y2="105.4"/>
		<line class="st8" x1="53" y1="109.9" x2="53" y2="100.9"/>
	</g>
	<g>
		<path class="st9" d="M75.2,98.4h2v2h2v2h-2v8h-2V98.4z M79.2,102.4h2v2h-2V102.4z M83.2,98.4h2v12h-2v-8h-2v-2h2V98.4z"/>
		<path class="st9" d="M87.2,100.4h2v8h-2V100.4z M89.2,98.4h4v2h-4V98.4z M89.2,108.4h4v2h-4V108.4z M93.2,100.4h2v8h-2V100.4z"/>
		<path class="st9" d="M97.2,98.4h6v2h-4v4h4v2h-4v4h-2V98.4z M103.2,100.4h2v4h-2V100.4z M103.2,106.4h2v4h-2V106.4z"/>
		<path class="st9" d="M107.2,98.4h8v2h-6v2h4v2h-4v4h6v2h-8V98.4z"/>
		<path class="st9" d="M123.2,98.4h8v2h-6v2h4v2h-4v6h-2V98.4z"/>
		<path class="st9" d="M133.2,100.4h2v8h-2V100.4z M135.2,98.4h4v2h-4V98.4z M135.2,108.4h4v2h-4V108.4z M139.2,100.4h2v8h-2V100.4z
			"/>
		<path class="st9" d="M143.2,100.4h2v8h-2V100.4z M145.2,98.4h4v2h-4V98.4z M145.2,108.4h4v2h-4V108.4z M149.2,100.4h2v8h-2V100.4z
			"/>
		<path class="st9" d="M153.2,98.4h6v2h-4v8h4v2h-6V98.4z M159.2,100.4h2v8h-2V100.4z"/>
	</g>
	<g>
		<path class="st8" d="M40,150.8v-16.9c0-2.5,2-4.5,4.5-4.5h16.9c2.5,0,4.5,2,4.5,4.5l0,16.9c0,2.5-2,4.5-4.5,4.5H44.5
			C42,155.4,40,153.3,40,150.8z"/>
		<line class="st8" x1="48.5" y1="141.4" x2="57.5" y2="141.4"/>
	</g>
	<g>
		<path class="st9" d="M75.2,134.4h2v10h4v2h-6V134.4z"/>
		<path class="st9" d="M83.2,134.4h8v2h-6v2h4v2h-4v4h6v2h-8V134.4z"/>
		<path class="st9" d="M93.2,134.4h6v2h-4v2h4v8h-6v-2h4v-4h-4V134.4z"/>
		<path class="st9" d="M101.2,134.4h6v2h-4v2h4v8h-6v-2h4v-4h-4V134.4z"/>
		<path class="st9" d="M115.2,134.4h8v2h-6v2h4v2h-4v6h-2V134.4z"/>
		<path class="st9" d="M125.2,136.4h2v8h-2V136.4z M127.2,134.4h4v2h-4V134.4z M127.2,144.4h4v2h-4V144.4z M131.2,136.4h2v8h-2
			V136.4z"/>
		<path class="st9" d="M135.2,136.4h2v8h-2V136.4z M137.2,134.4h4v2h-4V134.4z M137.2,144.4h4v2h-4V144.4z M141.2,136.4h2v8h-2
			V136.4z"/>
		<path class="st9" d="M145.2,134.4h6v2h-4v8h4v2h-6V134.4z M151.2,136.4h2v8h-2V136.4z"/>
	</g>
</g>
<g>
	<g>
		<path class="st10" d="M161.8,193.2H45.9c-3.3,0-5.9-2.6-5.9-5.9v-14.2c0-3.3,2.6-5.9,5.9-5.9h115.9c3.3,0,5.9,2.6,5.9,5.9v14.2
			C167.7,190.5,165,193.2,161.8,193.2z"/>
		<line class="st11" x1="99.3" y1="179.6" x2="108.3" y2="179.6"/>
		<line class="st11" x1="98.7" y1="177.9" x2="98.7" y2="181.3"/>
		<line class="st11" x1="108.9" y1="177.9" x2="108.9" y2="181.3"/>
	</g>
	<g>
		<path class="st9" d="M181.7,172.2h6v2h-4v4h4v2h-4v4h-2V172.2z M187.7,174.2h2v4h-2V174.2z M187.7,180.2h2v4h-2V180.2z"/>
		<path class="st9" d="M191.7,172.2h8v2h-6v2h4v2h-4v4h6v2h-8V172.2z"/>
		<path class="st9" d="M201.7,172.2h6v2h-4v2h4v8h-6v-2h4v-4h-4V172.2z"/>
		<path class="st9" d="M209.7,172.2h8v2h-6v2h4v2h-4v4h6v2h-8V172.2z"/>
		<path class="st9" d="M219.7,172.2h10v2h-4v10h-2v-10h-4V172.2z"/>
	</g>
</g>
<g>
	<g>
		<path class="st9" d="M107.8,210h6v2h-4v2h4v8h-6v-2h4v-4h-4V210z"/>
		<path class="st9" d="M115.8,210h10v2h-4v10h-2v-10h-4V210z"/>
		<path class="st9" d="M127.8,212h2v4h2v-4h2v10h-2v-4h-2v4h-2V212z M129.8,210h2v2h-2V210z"/>
		<path class="st9" d="M135.8,210h6v2h-4v4h4v2h-4v4h-2V210z M141.8,212h2v4h-2V212z M141.8,218h2v4h-2V218z"/>
		<path class="st9" d="M145.8,210h10v2h-4v10h-2v-10h-4V210z"/>
		<path class="st9" d="M163.8,210h8v4h-2v-2h-4v8h4v-2h-2v-2h4v6h-8V210z"/>
		<path class="st9" d="M173.8,212h2v4h2v-4h2v10h-2v-4h-2v4h-2V212z M175.8,210h2v2h-2V210z"/>
		<path class="st9" d="M181.8,210h2v2h2v2h-2v8h-2V210z M185.8,214h2v2h-2V214z M189.8,210h2v12h-2v-8h-2v-2h2V210z"/>
		<path class="st9" d="M193.8,210h8v2h-6v2h4v2h-4v4h6v2h-8V210z"/>
	</g>
	<g>
		<path class="st12" d="M95,231h-51c-2.2,0-4-1.8-4-4v-18c0-2.2,1.8-4,4-4h51c2.2,0,4,1.8,4,4v18C99,229.2,97.2,231,95,231z"/>
		<g>
			<line class="st13" x1="86.8" y1="215" x2="86.8" y2="219.5"/>
			<line class="st13" x1="79.3" y1="219" x2="87.3" y2="219"/>
			<line class="st13" x1="81.4" y1="221" x2="79" y2="218.7"/>
			<line class="st13" x1="79" y1="219.4" x2="81.4" y2="217"/>
		</g>
	</g>
</g>
<rect x="219.5" y="251" class="st4" width="1.5" height="1.5"/>
<rect x="223.8" y="257.9" class="st4" width="1.5" height="1.5"/>
<rect x="229.3" y="262.8" class="st4" width="1.5" height="1.5"/>
<rect x="219.8" y="270.7" class="st4" width="1.5" height="1.5"/>
<rect x="226.1" y="273.2" class="st4" width="1.5" height="1.5"/>
<rect x="232.4" y="269.3" class="st4" width="1.5" height="1.5"/>
<rect x="232.4" y="273.2" class="st4" width="1.5" height="1.5"/>
</svg>
