<?xml version="1.0" encoding="utf-8"?>
<!-- Generator: Adobe Illustrator 27.1.1, SVG Export Plug-In . SVG Version: 6.00 Build 0)  -->
<svg version="1.1" id="Layer_1" xmlns="http://www.w3.org/2000/svg" xmlns:xlink="http://www.w3.org/1999/xlink" x="0px" y="0px"
	 viewBox="0 0 72 51.9" style="enable-background:new 0 0 72 51.9;" xml:space="preserve">
<style type="text/css">
	.st0{fill:#B0B1B1;stroke:#5D1F36;stroke-width:2;stroke-miterlimit:10;}
	.st1{fill:#F26A65;stroke:#5D1F36;stroke-width:2;stroke-miterlimit:10;}
	.st2{fill:#FFFFFF;}
	.st3{font-family:'ArialMT';}
	.st4{font-size:12px;}
	.st5{fill:none;stroke:#FFFFFF;stroke-miterlimit:10;}
</style>
<path class="st0" d="M13.5,13.9L45.3,2.2c9.9-3.6,20.9,1.4,24.5,11.3l0,0c3.6,9.9-1.4,20.9-11.3,24.5L26.7,49.7
	c-9.9,3.6-20.9-1.4-24.5-11.3l0,0C-1.5,28.5,3.6,17.5,13.5,13.9z"/>
<circle class="st1" cx="21" cy="31.6" r="11.2"/>
<circle class="st1" cx="51" cy="20.4" r="11.2"/>
<g>
	<text transform="matrix(0.9387 -0.3448 0.3448 0.9387 18.84 35.75)" class="st2 st3 st4">+</text>
</g>
<g>
	<circle class="st1" cx="21" cy="29.6" r="11.2"/>
	<path class="st2" d="M23,39.6c-0.6,0.1-1.3,0.2-2.1,0.2c-5.6,0-10.2-4.6-10.2-10.2c0-2.6,0.9-4.9,2.5-6.7c-0.4,2-0.7,5.6,1.1,9.3
		C16.4,36.5,20.1,38.6,23,39.6L23,39.6z"/>
</g>
<g>
	<text transform="matrix(0.9387 -0.3448 0.3448 0.9387 51.1201 23.2901)" class="st2 st3 st4">-</text>
</g>
<g>
	<circle class="st1" cx="51" cy="18.4" r="11.2"/>
	<path class="st2" d="M53,28.4c-0.6,0.1-1.3,0.2-2.1,0.2c-5.7,0-10.2-4.6-10.2-10.2c0-2.6,0.9-4.9,2.5-6.7c-0.4,1.9-0.7,5.6,1.1,9.3
		C46.4,25.3,50.1,27.4,53,28.4C53,28.4,53,28.4,53,28.4z"/>
</g>
<line class="st5" x1="19.8" y1="25.4" x2="23.3" y2="31.9"/>
<line class="st5" x1="18.4" y1="30.5" x2="24.7" y2="26.8"/>
<line class="st5" x1="48.5" y1="19" x2="54.9" y2="15.3"/>
</svg>
