<?xml version="1.0" encoding="UTF-8"?>
<svg id="Layer_1" data-name="Layer 1" xmlns="http://www.w3.org/2000/svg" viewBox="0 0 214.2283 380.33997">
  <defs>
    <style>
      .cls-1 {
        letter-spacing: .016em;
      }

      .cls-2, .cls-3 {
        fill: #fff;
      }

      .cls-4 {
        fill: #f26965;
      }

      .cls-4, .cls-5, .cls-6, .cls-7, .cls-8, .cls-9, .cls-10, .cls-11 {
        stroke-miterlimit: 10;
      }

      .cls-4, .cls-5, .cls-6, .cls-8, .cls-9, .cls-10, .cls-11 {
        stroke: #5d1e36;
      }

      .cls-4, .cls-6, .cls-8, .cls-9, .cls-10 {
        stroke-width: 2px;
      }

      .cls-5 {
        stroke-width: 1.98616px;
      }

      .cls-5, .cls-10 {
        fill: #b0b0b0;
      }

      .cls-12 {
        fill: #b5e3f1;
      }

      .cls-6, .cls-13 {
        fill: none;
      }

      .cls-14 {
        fill: #eaf7fc;
      }

      .cls-15 {
        fill: #b3d780;
      }

      .cls-16 {
        letter-spacing: -.07503em;
      }

      .cls-17 {
        fill: #6d6e71;
      }

      .cls-7 {
        stroke: #5d142c;
        stroke-width: 3px;
      }

      .cls-7, .cls-18, .cls-19 {
        fill: #5d1e36;
      }

      .cls-20 {
        fill: #85c6ce;
      }

      .cls-21 {
        letter-spacing: .00004em;
      }

      .cls-18 {
        font-size: 4.09239px;
      }

      .cls-18, .cls-19, .cls-3 {
        font-family: MyriadPro-Regular, 'Myriad Pro';
      }

      .cls-8 {
        fill: #8f6662;
      }

      .cls-9 {
        fill: #6d4e4b;
      }

      .cls-22 {
        letter-spacing: .00896em;
      }

      .cls-19 {
        font-size: 4.10696px;
      }

      .cls-23 {
        fill: #c2de9c;
      }

      .cls-3 {
        font-size: 12px;
      }

      .cls-24 {
        fill: #231f20;
      }

      .cls-11 {
        fill: #ef3738;
      }

      .cls-25 {
        fill: #80c6ce;
        opacity: .64;
      }
    </style>
  </defs>
  <g>
    <path class="cls-14" d="m16.4686,379.76997h-4.59998c-.88-.02997-4.19-.26996-7.08002-2.89996-2.89996-2.65002-3.42999-5.95001-3.53998-6.82001.16998-115.88.34003-231.75.51001-347.62h7.51996v349.51001c.25.75995.62006,1.59998,1.13,2.46997,1.85004,3.07001,4.55005,4.64001,6.06,5.35999Z"/>
    <path class="cls-14" d="m19.83866,1.69996c-.76001.15002-6.37006,2-8.29004,4.27002-1.66998,1.98999-2.19,5.16003-2.27002,5.97003v10.48999H1.75864c-.15002-3.88.14996-7.85004,0-11.72003.26001-1.07001.71997-4.12,3.72998-6.53998,2.14001-1.72003,4.35999-2.26001,5.48999-2.46002,2.95001,0,5.91003-.01001,8.86005-.01001Z"/>
    <path class="cls-12" d="m9.27843,22.42944v349.51001c.25.76001.62,1.59998,1.13,2.46997.10004.16003.19.32001.30005.47003.06995.10999.13995.21997.21997.32001.10999.15997.21997.31.34003.44995.10999.15002.21997.29004.33997.42999.23999.28003.47998.54004.72003.78003.12.12.22998.23999.34998.34998.02002.02002.03998.03003.06.05005.14001.12994.28003.25995.41998.37.87.75,1.73999,1.31,2.47003,1.70996h.01001c.14996.08002.29999.16003.44.23004.13.06995.26996.13995.38995.19995h.01001c56.56-.03998,113.14001-.07996,169.70001-.12.17999-.04999.35999-.12.56-.19s.40997-.14996.62-.23999c.03003-.01001.06-.01996.10004-.03998.18994-.08002.38995-.16998.58997-.26001.33002-.15002.69-.33002,1.06-.53003.15002-.07996.29999-.16998.46002-.25995.62-.35004,1.26996-.76001,1.95996-1.25.10004-.07001.20001-.14001.31-.22003.57001-.39996,1.16003-.85999,1.76001-1.38.29004-.23999.58002-.48999.88-.76001.40002-.35999.79999-.72998,1.20001-1.13995.17999-.17999.35999-.36005.53998-.54004.03003-.02997.06-.06.08002-.08997.20001-.21002.40002-.42004.59998-.64001.41003-.42999.81006-.89001,1.22003-1.38.20001-.23999.40997-.48999.60999-.73999.16003-.20001.33002-.41003.48999-.62.66003-.84003,1.33002-1.75,1.99005-2.73004,3.62994-5.34998,4.53998-10.76996,4.92999-14.01996.06-109.85999.13-219.71002.17999-329.56v-.63H9.27843Zm13.20001,29.23999c0-1.41998.56-2.70001,1.46002-3.64001.95996-.98999,2.29999-1.59998,3.77997-1.59998h153.85004c2.89996,0,5.23999,2.33997,5.23999,5.23999v116.96997c0,3.73004-1.29999,7.16003-3.47003,9.86005-2.88995,3.57001-7.29999,5.85999-12.25,5.85999H27.71844c-2.89996,0-5.23999-2.34003-5.23999-5.23999V51.66943Zm109.91998,253.66998l-17.15997,9.91003c-2.20001,1.26001-5,.51001-6.27002-1.67999l-.27997-.49005c-1.27002-2.19995-.52002-5,1.67999-6.26996l16.87-9.73999c2.34998-1.36005,5.35999-.55005,6.72003,1.79999l.12.20001c1.25995,2.19995.50995,5-1.68005,6.26996Zm2.83002,53.79999c0,.49005-.39996.90002-.89996.90002s-.90002-.40997-.90002-.90002c0-.5.40002-.89996.90002-.89996s.89996.39996.89996.89996Zm-5.47998-17.40997c0,.5-.40002.90002-.90002.90002s-.89996-.40002-.89996-.90002c0-.48999.39996-.90002.89996-.90002s.90002.41003.90002.90002Zm-31.21002-36.33002l-17.14996,9.91003c-2.20001,1.26001-5,.51001-6.27002-1.67999l-.28003-.49005c-1.26996-2.19995-.51996-5,1.68005-6.26996l16.87-9.73999c2.34998-1.36005,5.35999-.55005,6.70996,1.79999l.12.20001c1.27002,2.19995.52002,5-1.67999,6.26996Zm-43.58997-99.06c19.73999,0,35.75,16.01001,35.75,35.75s-16.01001,35.75-35.75,35.75-35.75-16.01001-35.75-35.75,16.01001-35.75,35.75-35.75Zm84.72998,134.65002c.5,0,.90002.39996.90002.89996,0,.49005-.40002.90002-.90002.90002s-.90002-.40997-.90002-.90002c0-.5.40002-.89996.90002-.89996Zm-.90002-7.57001c0-.5.40002-.90002.90002-.90002s.90002.40002.90002.90002c0,.48999-.40002.90002-.90002.90002s-.90002-.41003-.90002-.90002Zm1.93005,17.03003c0,.48999-.41003.89996-.90002.89996-.5,0-.90002-.40997-.90002-.89996,0-.5.40002-.90002.90002-.90002.48999,0,.90002.40002.90002.90002Zm4.39996,9.48999c-.48999,0-.89996-.40002-.89996-.90002,0-.48999.40997-.90002.89996-.90002.5,0,.90002.41003.90002.90002,0,.5-.40002.90002-.90002.90002Zm.95001,7.83997c0,.5-.40002.90002-.90002.90002s-.89996-.40002-.89996-.90002c0-.48999.39996-.89996.89996-.89996s.90002.40997.90002.89996Zm4.25-27.02997c.48999,0,.90002.39996.90002.89996s-.41003.90002-.90002.90002c-.5,0-.90002-.40002-.90002-.90002s.40002-.89996.90002-.89996Zm-.90002-7.33002c0-.5.40002-.90002.90002-.90002.48999,0,.90002.40002.90002.90002,0,.48999-.41003.90002-.90002.90002-.5,0-.90002-.41003-.90002-.90002Zm1.92004,16.78998c0,.5-.40002.90002-.90002.90002-.48999,0-.90002-.40002-.90002-.90002s.41003-.89996.90002-.89996c.5,0,.90002.39996.90002.89996Zm4.40997,9.5c-.5,0-.90002-.40997-.90002-.89996,0-.5.40002-.90002.90002-.90002s.90002.40002.90002.90002c0,.48999-.40002.89996-.90002.89996Zm1.34003,7.87c0,.5-.40002.90002-.90002.90002s-.90002-.40002-.90002-.90002c0-.48999.40002-.89996.90002-.89996s.90002.40997.90002.89996Zm4.25-26.5c.5,0,.89996.41003.89996.90002,0,.5-.39996.90002-.89996.90002s-.90002-.40002-.90002-.90002c0-.48999.40002-.90002.90002-.90002Zm-.90002-7.85999c0-.5.40002-.89996.90002-.89996s.89996.39996.89996.89996-.39996.90002-.89996.90002-.90002-.40002-.90002-.90002Zm1.91998,17.32001c0,.5-.39996.90002-.89996.90002-.48999,0-.90002-.40002-.90002-.90002,0-.48999.41003-.90002.90002-.90002.5,0,.89996.41003.89996.90002Zm4.28003,16.14001c.5,0,.89996.40997.89996.89996,0,.5-.39996.90002-.89996.90002-.48999,0-.90002-.40002-.90002-.90002,0-.48999.41003-.89996.90002-.89996Zm-.77002-7.54004c0-.5.40002-.89996.90002-.89996s.89996.39996.89996.89996c0,.49005-.39996.90002-.89996.90002s-.90002-.40997-.90002-.90002Zm5.91998-18.06c.5,0,.90002.41003.90002.90002,0,.5-.40002.90002-.90002.90002s-.89996-.40002-.89996-.90002c0-.48999.39996-.90002.89996-.90002Zm-.89996-7.85999c0-.5.39996-.89996.89996-.89996s.90002.39996.90002.89996-.40002.90002-.90002.90002-.89996-.40002-.89996-.90002Zm1.92999,17.32001c0,.5-.41003.90002-.90002.90002-.5,0-.89996-.40002-.89996-.90002,0-.48999.39996-.90002.89996-.90002.48999,0,.90002.41003.90002.90002Zm4.40002,9.5c-.49005,0-.90002-.40997-.90002-.90002,0-.5.40997-.89996.90002-.89996.5,0,.89996.39996.89996.89996,0,.49005-.39996.90002-.89996.90002Zm1.18994,7.53998c0,.5-.40997.90002-.89996.90002-.5,0-.90002-.40002-.90002-.90002,0-.48999.40002-.89996.90002-.89996.48999,0,.89996.40997.89996.89996Zm4.24005-26.5c.5,0,.89996.41003.89996.90002,0,.5-.39996.90002-.89996.90002-.49005,0-.90002-.40002-.90002-.90002,0-.48999.40997-.90002.90002-.90002Zm-.90002-7.85999c0-.5.40997-.89996.90002-.89996.5,0,.89996.39996.89996.89996s-.39996.90002-.89996.90002c-.49005,0-.90002-.40002-.90002-.90002Zm1.92999,17.32001c0,.5-.39996.90002-.89996.90002s-.90002-.40002-.90002-.90002c0-.48999.40002-.90002.90002-.90002s.89996.41003.89996.90002Zm4.41003,9.5c-.5,0-.90002-.40997-.90002-.90002,0-.5.40002-.89996.90002-.89996.48999,0,.89996.39996.89996.89996,0,.49005-.40997.90002-.89996.90002Zm5.42999-17.48999c-.5,0-.90002-.40002-.90002-.90002s.40002-.89996.90002-.89996c.48999,0,.89996.39996.89996.89996s-.40997.90002-.89996.90002Zm-11.23004-86.34003l-31.81995,11.69c-9.91003,3.64001-20.88-1.44-24.52002-11.33997-.79999-2.17004-1.16998-4.39001-1.16998-6.58002,0-7.77997,4.77997-15.09003,12.51996-17.92999l31.82001-11.69c9.90002-3.64001,20.87,1.44,24.51001,11.34003.79999,2.16998,1.17999,4.39996,1.17999,6.57996,0,7.78003-4.78998,15.09003-12.52002,17.92999Z"/>
    <circle class="cls-13" cx="54.94864" cy="242.08997" r="35.75"/>
    <path class="cls-13" d="m100.2186,299.13001c1.27002,2.19995.52002,5-1.67999,6.26996l-17.14996,9.91003c-2.20001,1.25995-5,.50995-6.27002-1.67999l-.27997-.49005c-1.27002-2.19995-.52002-5,1.67999-6.26996l16.87-9.73999c2.34998-1.36005,5.35999-.55005,6.70996,1.79999l.12.20001Z"/>
    <path class="cls-13" d="m129.74863,341.72999c0,.5-.40002.90002-.90002.90002s-.89996-.40002-.89996-.90002c0-.48999.39996-.90002.89996-.90002s.90002.41003.90002.90002Z"/>
    <path class="cls-13" d="m132.39865,305.33997l-17.16003,9.91003c-2.20001,1.25995-5,.50995-6.27002-1.68005l-.27997-.48999c-1.27002-2.19995-.52002-5,1.67999-6.26996l16.87-9.74005c2.35004-1.35999,5.35999-.54999,6.72003,1.80005l.12.19995c1.26001,2.20001.51001,5-1.67999,6.27002Z"/>
    <path class="cls-13" d="m135.22861,359.13996c0,.49005-.39996.90002-.89996.90002s-.90002-.40997-.90002-.90002c0-.5.40002-.89996.90002-.89996s.89996.39996.89996.89996Z"/>
    <path class="cls-13" d="m138.7786,341.88996c0-.5.40002-.89996.90002-.89996s.90002.39996.90002.89996c0,.49005-.40002.90002-.90002.90002s-.90002-.40997-.90002-.90002Z"/>
    <path class="cls-13" d="m138.7786,333.41999c0-.5.40002-.90002.90002-.90002s.90002.40002.90002.90002c0,.48999-.40002.89996-.90002.89996s-.90002-.40997-.90002-.89996Z"/>
    <path class="cls-13" d="m140.70865,350.44996c0,.49005-.41003.90002-.90002.90002-.5,0-.90002-.40997-.90002-.90002,0-.5.40002-.89996.90002-.89996.48999,0,.90002.39996.90002.89996Z"/>
    <path class="cls-13" d="m144.20865,359.03999c0-.48999.40997-.90002.89996-.90002.5,0,.90002.41003.90002.90002,0,.5-.40002.90002-.90002.90002-.48999,0-.89996-.40002-.89996-.90002Z"/>
    <path class="cls-13" d="m146.05863,367.77998c0,.5-.40002.90002-.90002.90002s-.89996-.40002-.89996-.90002c0-.48999.39996-.89996.89996-.89996s.90002.40997.90002.89996Z"/>
    <path class="cls-13" d="m149.4086,341.64997c0-.5.40002-.89996.90002-.89996.48999,0,.90002.39996.90002.89996s-.41003.90002-.90002.90002c-.5,0-.90002-.40002-.90002-.90002Z"/>
    <path class="cls-13" d="m150.30863,332.51997c.48999,0,.90002.40002.90002.90002,0,.48999-.41003.89996-.90002.89996-.5,0-.90002-.40997-.90002-.89996,0-.5.40002-.90002.90002-.90002Z"/>
    <path class="cls-13" d="m151.32865,350.20997c0,.5-.40002.90002-.90002.90002-.48999,0-.90002-.40002-.90002-.90002s.41003-.89996.90002-.89996c.5,0,.90002.39996.90002.89996Z"/>
    <path class="cls-13" d="m155.73862,359.70997c-.5,0-.89996-.40997-.89996-.89996,0-.5.39996-.90002.89996-.90002s.90002.40002.90002.90002c0,.48999-.40002.89996-.90002.89996Z"/>
    <path class="cls-13" d="m157.07865,367.57996c0,.5-.40002.90002-.90002.90002s-.90002-.40002-.90002-.90002c0-.48999.40002-.89996.90002-.89996s.90002.40997.90002.89996Z"/>
    <path class="cls-13" d="m160.42862,341.97999c0-.48999.40002-.90002.90002-.90002s.89996.41003.89996.90002c0,.5-.39996.90002-.89996.90002s-.90002-.40002-.90002-.90002Z"/>
    <path class="cls-13" d="m161.32865,332.31995c.5,0,.89996.40002.89996.90002s-.39996.90002-.89996.90002-.90002-.40002-.90002-.90002.40002-.90002.90002-.90002Z"/>
    <path class="cls-13" d="m162.3486,350.53999c0,.5-.39996.90002-.89996.90002-.48999,0-.90002-.40002-.90002-.90002,0-.48999.41003-.90002.90002-.90002.5,0,.89996.41003.89996.90002Z"/>
    <path class="cls-13" d="m167.5286,367.57996c0,.5-.39996.90002-.89996.90002-.48999,0-.90002-.40002-.90002-.90002,0-.48999.41003-.89996.90002-.89996.5,0,.89996.40997.89996.89996Z"/>
    <path class="cls-13" d="m167.6586,359.13996c0,.49005-.39996.90002-.89996.90002s-.90002-.40997-.90002-.90002c0-.5.40002-.89996.90002-.89996s.89996.39996.89996.89996Z"/>
    <path class="cls-13" d="m170.87863,341.97999c0-.48999.39996-.90002.89996-.90002s.90002.41003.90002.90002c0,.5-.40002.90002-.90002.90002s-.89996-.40002-.89996-.90002Z"/>
    <path class="cls-13" d="m171.7786,332.31995c.5,0,.90002.40002.90002.90002s-.40002.90002-.90002.90002-.89996-.40002-.89996-.90002.39996-.90002.89996-.90002Z"/>
    <path class="cls-13" d="m172.80863,350.53999c0,.5-.40997.90002-.90002.90002-.5,0-.89996-.40002-.89996-.90002,0-.48999.39996-.90002.89996-.90002.49005,0,.90002.41003.90002.90002Z"/>
    <path class="cls-13" d="m177.20865,360.03999c-.49005,0-.90002-.40997-.90002-.90002,0-.5.40997-.89996.90002-.89996.5,0,.89996.39996.89996.89996,0,.49005-.39996.90002-.89996.90002Z"/>
    <path class="cls-13" d="m178.39865,367.57996c0,.5-.41003.90002-.90002.90002-.5,0-.90002-.40002-.90002-.90002,0-.48999.40002-.89996.90002-.89996.48999,0,.90002.40997.90002.89996Z"/>
    <path class="cls-13" d="m181.73862,341.97999c0-.48999.41003-.90002.90002-.90002.5,0,.89996.41003.89996.90002,0,.5-.39996.90002-.89996.90002-.48999,0-.90002-.40002-.90002-.90002Z"/>
    <path class="cls-13" d="m182.63864,332.31995c.5,0,.89996.40002.89996.90002s-.39996.90002-.89996.90002c-.48999,0-.90002-.40002-.90002-.90002s.41003-.90002.90002-.90002Z"/>
    <path class="cls-13" d="m183.66861,350.53999c0,.5-.39996.90002-.89996.90002s-.90002-.40002-.90002-.90002c0-.48999.40002-.90002.90002-.90002s.89996.41003.89996.90002Z"/>
    <path class="cls-13" d="m181.56847,46.42944H27.71844c-1.47998,0-2.82001.60999-3.77997,1.59998-.90002.94-1.46002,2.22003-1.46002,3.64001v127.45001c0,2.89996,2.34003,5.23999,5.23999,5.23999h143.37c4.95001,0,9.36005-2.28998,12.25-5.85999,2.17004-2.70001,3.47003-6.13,3.47003-9.86005V51.66943c0-2.90002-2.34003-5.23999-5.23999-5.23999Zm-47.77002,115.14996h-45.83997m77.25-76.5v45.08002m0,.06v31.35999h-31.35004"/>
    <path class="cls-13" d="m188.07865,358.24c.48999,0,.89996.39996.89996.89996,0,.49005-.40997.90002-.89996.90002-.5,0-.90002-.40997-.90002-.90002,0-.5.40002-.89996.90002-.89996Z"/>
    <path class="cls-13" d="m193.50864,340.75001c.48999,0,.89996.39996.89996.89996s-.40997.90002-.89996.90002c-.5,0-.90002-.40002-.90002-.90002s.40002-.89996.90002-.89996Z"/>
    <path class="cls-13" d="m150.45865,267.89997c-9.91003,3.64001-20.88-1.44-24.52002-11.33997-.79999-2.17004-1.16998-4.39001-1.16998-6.58002,0-7.78003,4.77997-15.09003,12.51996-17.92999l31.82001-11.69c9.90002-3.64001,20.87,1.44,24.51001,11.33997.79999,2.17004,1.17999,4.40002,1.17999,6.58002,0,7.78003-4.78998,15.09003-12.52002,17.92999l-31.81995,11.69Z"/>
    <path class="cls-12" d="m191.73862,1.44996v20.98004H22.47861V1.69001c56.42004-.08002,112.84003-.16003,169.26001-.24005Z"/>
    <path class="cls-12" d="m22.47861,1.69001v20.73999h-13.20001v-10.48999c.08002-.81.60004-3.98004,2.27002-5.97003,1.91998-2.27002,7.53003-4.12,8.29004-4.27002.87994,0,1.75995-.00995,2.63995-.00995Z"/>
    <path class="cls-20" d="m213.4686,13.83997v8.59003h-7.14996c.01001-3.07001.01001-6.63.01001-9.63-.06-1.09003-.37-4.20001-2.75-7.02002-1.19-1.40997-3.67999-3.25-5.38-4.33997,1.66998,0,3.32996-.01001,5-.01001,1.01001.13995,4.38.75,7.10999,3.69,3.29999,3.56,3.19,7.88,3.15997,8.71997Z"/>
    <path class="cls-12" d="m206.32865,12.8c0,3,0,6.56-.01001,9.63h-14.58002V1.44996c2.15002-.00995,4.31-.00995,6.46002-.00995,1.70001,1.08997,4.19,2.92999,5.38,4.33997,2.38,2.82001,2.69,5.92999,2.75,7.02002Z"/>
    <path class="cls-20" d="m213.4686,22.43v332.96997c-.62,2.76001-2.50995,9.57001-8.58997,15.66003-6.09003,6.07996-12.91003,7.97998-15.66998,8.58997h-3.03003c3.06-.95001,9.03003-4.16998,15.03003-13.01001,3.63-5.34998,4.53998-10.76996,4.92999-14.01996.06-109.86005.13-219.71002.17999-329.56v-.63h7.14996Z"/>
    <path class="cls-13" d="m181.56847,46.42944H27.71844c-1.47998,0-2.82001.60999-3.77997,1.59998-.90002.94-1.46002,2.22003-1.46002,3.64001v127.45001c0,2.89996,2.34003,5.23999,5.23999,5.23999h143.37c4.95001,0,9.36005-2.28998,12.25-5.85999,2.17004-2.70001,3.47003-6.13,3.47003-9.86005V51.66943c0-2.90002-2.34003-5.23999-5.23999-5.23999Zm-47.77002,115.14996h-45.83997m77.25-31.35999v31.35999h-31.35004"/>
    <circle class="cls-13" cx="54.94864" cy="242.08997" r="35.75"/>
    <path class="cls-13" d="m194.79862,238.27998c0,7.78003-4.78998,15.09003-12.52002,17.92999l-31.81995,11.69c-9.91003,3.64001-20.88-1.44-24.52002-11.33997-.79999-2.17004-1.16998-4.39001-1.16998-6.58002,0-7.78003,4.77997-15.09003,12.51996-17.92999l31.82001-11.69c9.90002-3.64001,20.87,1.44,24.51001,11.33997.79999,2.17004,1.17999,4.40002,1.17999,6.58002Z"/>
    <circle class="cls-13" cx="144.74547" cy="249.81895" r="11.19737"/>
    <circle class="cls-13" cx="174.77562" cy="238.62158" r="11.19737"/>
    <polygon class="cls-13" points="48.11652 219.22684 62.89547 219.22684 62.89547 234.38474 79.56915 234.38474 79.56915 249.81895 63.84284 249.81895 63.84284 265.07947 48.11652 265.07947 48.11652 249.81895 32.20073 249.81895 32.20073 234.76368 48.11652 234.76368 48.11652 219.22684"/>
    <path class="cls-13" d="m98.53861,305.39997l-17.14996,9.91003c-2.20001,1.25995-5,.50995-6.27002-1.67999l-.27997-.49005c-1.27002-2.19995-.52002-5,1.67999-6.26996l16.87-9.73999c2.34998-1.36005,5.35999-.55005,6.70996,1.79999l.12.20001c1.27002,2.19995.52002,5-1.67999,6.26996Z"/>
    <path class="cls-13" d="m132.39865,305.33997l-17.16003,9.91003c-2.20001,1.25995-5,.50995-6.27002-1.68005l-.27997-.48999c-1.27002-2.19995-.52002-5,1.67999-6.26996l16.87-9.74005c2.35004-1.35999,5.35999-.54999,6.72003,1.80005l.12.19995c1.26001,2.20001.51001,5-1.67999,6.27002Z"/>
    <path class="cls-24" d="m140.57865,333.41999c0,.48999-.40002.89996-.90002.89996s-.90002-.40997-.90002-.89996c0-.5.40002-.90002.90002-.90002s.90002.40002.90002.90002Z"/>
    <path class="cls-24" d="m151.20865,333.41999c0,.48999-.41003.89996-.90002.89996-.5,0-.90002-.40997-.90002-.89996,0-.5.40002-.90002.90002-.90002.48999,0,.90002.40002.90002.90002Z"/>
    <path class="cls-24" d="m129.74863,341.72999c0,.5-.40002.90002-.90002.90002s-.89996-.40002-.89996-.90002c0-.48999.39996-.90002.89996-.90002s.90002.41003.90002.90002Z"/>
    <path class="cls-24" d="m140.57865,341.88996c0,.49005-.40002.90002-.90002.90002s-.90002-.40997-.90002-.90002c0-.5.40002-.89996.90002-.89996s.90002.39996.90002.89996Z"/>
    <path class="cls-24" d="m151.20865,341.64997c0,.5-.41003.90002-.90002.90002-.5,0-.90002-.40002-.90002-.90002s.40002-.89996.90002-.89996c.48999,0,.90002.39996.90002.89996Z"/>
    <path class="cls-24" d="m162.22861,341.97999c0,.5-.39996.90002-.89996.90002s-.90002-.40002-.90002-.90002c0-.48999.40002-.90002.90002-.90002s.89996.41003.89996.90002Z"/>
    <path class="cls-24" d="m162.22861,333.21998c0,.5-.39996.90002-.89996.90002s-.90002-.40002-.90002-.90002.40002-.90002.90002-.90002.89996.40002.89996.90002Z"/>
    <path class="cls-24" d="m172.67862,341.97999c0,.5-.40002.90002-.90002.90002s-.89996-.40002-.89996-.90002c0-.48999.39996-.90002.89996-.90002s.90002.41003.90002.90002Z"/>
    <path class="cls-24" d="m172.67862,333.21998c0,.5-.40002.90002-.90002.90002s-.89996-.40002-.89996-.90002.39996-.90002.89996-.90002.90002.40002.90002.90002Z"/>
    <path class="cls-24" d="m183.53861,341.97999c0,.5-.39996.90002-.89996.90002-.48999,0-.90002-.40002-.90002-.90002,0-.48999.41003-.90002.90002-.90002.5,0,.89996.41003.89996.90002Z"/>
    <path class="cls-24" d="m183.53861,333.21998c0,.5-.39996.90002-.89996.90002-.48999,0-.90002-.40002-.90002-.90002s.41003-.90002.90002-.90002c.5,0,.89996.40002.89996.90002Z"/>
    <path class="cls-24" d="m194.4086,341.64997c0,.5-.40997.90002-.89996.90002-.5,0-.90002-.40002-.90002-.90002s.40002-.89996.90002-.89996c.48999,0,.89996.39996.89996.89996Z"/>
    <path class="cls-24" d="m140.70865,350.44996c0,.49005-.41003.90002-.90002.90002-.5,0-.90002-.40997-.90002-.90002,0-.5.40002-.89996.90002-.89996.48999,0,.90002.39996.90002.89996Z"/>
    <path class="cls-24" d="m151.32865,350.20997c0,.5-.40002.90002-.90002.90002-.48999,0-.90002-.40002-.90002-.90002s.41003-.89996.90002-.89996c.5,0,.90002.39996.90002.89996Z"/>
    <path class="cls-24" d="m162.3486,350.53999c0,.5-.39996.90002-.89996.90002-.48999,0-.90002-.40002-.90002-.90002,0-.48999.41003-.90002.90002-.90002.5,0,.89996.41003.89996.90002Z"/>
    <path class="cls-24" d="m172.80863,350.53999c0,.5-.40997.90002-.90002.90002-.5,0-.89996-.40002-.89996-.90002,0-.48999.39996-.90002.89996-.90002.49005,0,.90002.41003.90002.90002Z"/>
    <path class="cls-24" d="m183.66861,350.53999c0,.5-.39996.90002-.89996.90002s-.90002-.40002-.90002-.90002c0-.48999.40002-.90002.90002-.90002s.89996.41003.89996.90002Z"/>
    <path class="cls-24" d="m146.00864,359.03999c0,.5-.40002.90002-.90002.90002-.48999,0-.89996-.40002-.89996-.90002,0-.48999.40997-.90002.89996-.90002.5,0,.90002.41003.90002.90002Z"/>
    <path class="cls-24" d="m156.63864,358.81001c0,.48999-.40002.89996-.90002.89996s-.89996-.40997-.89996-.89996c0-.5.39996-.90002.89996-.90002s.90002.40002.90002.90002Z"/>
    <path class="cls-24" d="m167.6586,359.13996c0,.49005-.39996.90002-.89996.90002s-.90002-.40997-.90002-.90002c0-.5.40002-.89996.90002-.89996s.89996.39996.89996.89996Z"/>
    <path class="cls-24" d="m178.10861,359.13996c0,.49005-.39996.90002-.89996.90002-.49005,0-.90002-.40997-.90002-.90002,0-.5.40997-.89996.90002-.89996.5,0,.89996.39996.89996.89996Z"/>
    <path class="cls-24" d="m188.97861,359.13996c0,.49005-.40997.90002-.89996.90002-.5,0-.90002-.40997-.90002-.90002,0-.5.40002-.89996.90002-.89996.48999,0,.89996.39996.89996.89996Z"/>
    <path class="cls-24" d="m135.22861,359.13996c0,.49005-.39996.90002-.89996.90002s-.90002-.40997-.90002-.90002c0-.5.40002-.89996.90002-.89996s.89996.39996.89996.89996Z"/>
    <path class="cls-24" d="m146.05863,367.77998c0,.5-.40002.90002-.90002.90002s-.89996-.40002-.89996-.90002c0-.48999.39996-.89996.89996-.89996s.90002.40997.90002.89996Z"/>
    <path class="cls-24" d="m157.07865,367.57996c0,.5-.40002.90002-.90002.90002s-.90002-.40002-.90002-.90002c0-.48999.40002-.89996.90002-.89996s.90002.40997.90002.89996Z"/>
    <path class="cls-24" d="m167.5286,367.57996c0,.5-.39996.90002-.89996.90002-.48999,0-.90002-.40002-.90002-.90002,0-.48999.41003-.89996.90002-.89996.5,0,.89996.40997.89996.89996Z"/>
    <path class="cls-24" d="m178.39865,367.57996c0,.5-.41003.90002-.90002.90002-.5,0-.90002-.40002-.90002-.90002,0-.48999.40002-.89996.90002-.89996.48999,0,.90002.40997.90002.89996Z"/>
    <line class="cls-13" x1="45.83846" y1="107.13944" x2="45.46846" y2="107.48944"/>
    <line class="cls-13" x1="45.83846" y1="133.73944" x2="45.46846" y2="134.08944"/>
    <line class="cls-13" x1="87.95846" y1="161.57944" x2="87.52846" y2="162.00944"/>
    <line class="cls-13" x1="165.54846" y1="129.87944" x2="165.20846" y2="130.21944"/>
    <line class="cls-13" x1="133.85846" y1="161.57944" x2="133.42846" y2="162.00944"/>
    <path class="cls-13" d="m198.19863,1.44c-.68-.44-1.24-.76-1.53-.87"/>
  </g>
  <path class="cls-6" d="m210.06009,4.69c-2.72998-2.94-6.09998-3.55005-7.10999-3.69-2.02002,0-4.04004.01001-6.06.01001h-.01001c-1.79999,0-3.59003,0-5.39001.00995-56.41998.08002-112.83997.16003-169.26001.24005-3.82996.00995-7.66998.00995-11.5.01996-1.13.20001-3.34998.73999-5.48999,2.46002-.63.5-1.14001,1.02997-1.56,1.56v.01001c-1.63,2.03998-1.96002,4.12-2.16998,4.96997.14996,3.87-.15002,7.84003,0,11.72003v.42999c-.16998,115.72998-.34003,231.45001-.51001,347.19.10999.87.64001,4.16998,3.53998,6.82001,2.89001,2.63,6.20001,2.87,7.08002,2.89996h3.40002c57.23999-.03998,114.47998-.07996,171.71997-.12h2.22003c2.75995-.60999,9.57996-2.51001,15.66998-8.58997.38-.38.73999-.77002,1.08997-1.15002.22003-.23999.43005-.47998.63-.72998,4.73004-5.54999,6.31-11.29999,6.87-13.78003V13.40997c.03003-.83997.14001-5.15997-3.15997-8.71997Z"/>
  <rect class="cls-10" x="123.4832" y="224.60185" width="72.09918" height="38.1954" rx="19.09768" ry="19.09768" transform="translate(-74.24631 69.954) rotate(-20.1702)"/>
  <circle class="cls-7" cx="139.43114" cy="332.98631" r=".9"/>
  <circle class="cls-7" cx="150.35657" cy="333.10219" r=".8939"/>
  <circle class="cls-7" cx="161.30287" cy="332.90616" r=".8939"/>
  <circle class="cls-7" cx="171.68461" cy="332.90616" r=".8939"/>
  <circle class="cls-7" cx="182.47409" cy="332.90616" r=".8939"/>
  <g>
    <circle class="cls-4" cx="144.49693" cy="249.38894" r="11.19737"/>
    <path class="cls-2" d="m146.53366,259.36555c-.6041.11726-1.2762.25225-2.0933.25102-5.65047-.00846-10.19279-4.60738-10.19279-10.18145,0-2.57052.89527-4.91556,2.53095-6.70145-.42752,1.94823-.728,5.55601,1.10286,9.30808,2.04453,4.18504,5.7527,6.28659,8.65228,7.32379Z"/>
  </g>
  <g>
    <circle class="cls-4" cx="174.52708" cy="238.19158" r="11.19737"/>
    <path class="cls-2" d="m176.56381,248.16818c-.6041.11726-1.2762.25225-2.0933.25102-5.65047-.00846-10.19279-4.60738-10.19279-10.18145,0-2.57052.89527-4.91556,2.53095-6.70145-.42752,1.94823-.728,5.55601,1.10286,9.30808,2.04453,4.18504,5.7527,6.28659,8.65228,7.32379Z"/>
  </g>
  <g>
    <polygon class="cls-23" points="164.59012 85.62 164.59012 130.70001 133.18009 162.12 87.34012 162.12 164.59012 85.62"/>
    <polygon class="cls-15" points="164.59012 67.81 164.59012 85.56 87.28006 162.12 45.22006 162.12 45.22006 134.28003 114.8201 67.81 164.59012 67.81"/>
    <polygon class="cls-15" points="164.59012 130.76001 164.59012 162.12 133.24008 162.12 164.59012 130.76001"/>
    <polygon class="cls-15" points="86.83011 67.81 45.22006 107.60004 45.22006 67.81 86.83011 67.81"/>
    <polygon class="cls-23" points="114.74008 67.81 45.22006 134.20001 45.22006 107.67999 86.91007 67.81 114.74008 67.81"/>
  </g>
  <line class="cls-6" x1="1.5101" y1="21.99684" x2="213.21536" y2="21.99684"/>
  <line class="cls-6" x1="191.48904" y1="21.99684" x2="191.48904" y2="1.01081"/>
  <line class="cls-6" x1="22.22588" y1="21.99684" x2="22.22588" y2=".99684"/>
  <path class="cls-9" d="m181.3201,46H27.47006c-1.69,0-3.19.78998-4.14996,2.02997-.69.89001-1.09003,2-1.09003,3.21002v127.45001c0,2.89996,2.34003,5.23999,5.23999,5.23999h143.37006c4.73999,0,8.98999-2.10004,11.87994-5.42999,2.39001-2.75,3.84003-6.35004,3.84003-10.29004V51.23999c0-2.90002-2.34003-5.23999-5.23999-5.23999Zm-16.35999,115.57996h-.37v.43005H44.85007v-94.74005h.37v-.42999h119.74005v94.73999Z"/>
  <line class="cls-6" x1="32.33114" y1="55.47052" x2="92.20483" y2="55.47052"/>
  <line class="cls-6" x1="160.7943" y1="55.47052" x2="178.22588" y2="55.47052"/>
  <circle class="cls-5" cx="54.81009" cy="241.56" r="35.5"/>
  <path class="cls-10" d="m77.3751,300.83493h19.48524c2.71219,0,4.91415,2.20196,4.91415,4.91415v.23921c0,2.53206-2.05571,4.58777-4.58777,4.58777h-19.81161c-2.53206,0-4.58777-2.05571-4.58777-4.58777v-.56559c0-2.53206,2.05571-4.58777,4.58777-4.58777Z" transform="translate(-141.15932 84.59723) rotate(-30)"/>
  <circle class="cls-7" cx="128.59956" cy="341.3021" r=".9"/>
  <circle class="cls-7" cx="139.80233" cy="341.51579" r=".8939"/>
  <circle class="cls-7" cx="150.35657" cy="341.28055" r=".8939"/>
  <circle class="cls-7" cx="161.30287" cy="341.60988" r=".8939"/>
  <circle class="cls-7" cx="171.68461" cy="341.60988" r=".8939"/>
  <circle class="cls-7" cx="182.47409" cy="341.60988" r=".8939"/>
  <circle class="cls-7" cx="193.26356" cy="341.28055" r=".8939"/>
  <circle class="cls-7" cx="139.55746" cy="350.01789" r=".9"/>
  <circle class="cls-7" cx="150.48203" cy="349.78301" r=".8939"/>
  <circle class="cls-7" cx="161.42833" cy="350.11234" r=".8939"/>
  <circle class="cls-7" cx="171.81007" cy="350.11234" r=".8939"/>
  <circle class="cls-7" cx="182.59955" cy="350.11234" r=".8939"/>
  <circle class="cls-7" cx="145.19707" cy="358.55469" r=".8939"/>
  <circle class="cls-7" cx="155.75131" cy="358.31946" r=".8939"/>
  <circle class="cls-7" cx="166.69761" cy="358.64879" r=".8939"/>
  <circle class="cls-7" cx="177.07935" cy="358.64879" r=".8939"/>
  <circle class="cls-7" cx="187.86882" cy="358.64879" r=".8939"/>
  <circle class="cls-7" cx="134.07851" cy="358.70737" r=".9"/>
  <circle class="cls-7" cx="145.24412" cy="367.23489" r=".8939"/>
  <circle class="cls-7" cx="156.19042" cy="367.03886" r=".8939"/>
  <circle class="cls-7" cx="166.57215" cy="367.03886" r=".8939"/>
  <circle class="cls-7" cx="177.36163" cy="367.03886" r=".8939"/>
  <text class="cls-3" transform="translate(142.3546 253.50305) rotate(-20.1702)"><tspan x="0" y="0">+</tspan></text>
  <text class="cls-3" transform="translate(174.6275 241.04487) rotate(-20.17176)"><tspan x="0" y="0">-</tspan></text>
  <path class="cls-2" d="m75.55483,312.32579c.40263-2.22632,1.39737-2.55,3.2184-3.78468,5.52112-3.1853,11.60133-6.58052,17.15828-9.76961.51001-.16998.97686-.32671,1.42069-.33255.6-.00789,1.11045.20334,1.11045.20334l.18874.05152.20211.07728c-1.68947-2.32105-3.81877-1.8972-4.91523-1.37023l-16.87,9.73999c-1.46607.66126-2.93845,2.65342-1.66843,4.85337"/>
  <path class="cls-10" d="m111.47433,301.20526h19.48524c2.71219,0,4.91415,2.20196,4.91415,4.91415v.23921c0,2.53206-2.05571,4.58777-4.58777,4.58777h-19.81161c-2.53206,0-4.58777-2.05571-4.58777-4.58777v-.56559c0-2.53206,2.05571-4.58777,4.58777-4.58777Z" transform="translate(-136.77606 101.69645) rotate(-30)"/>
  <path class="cls-2" d="m109.65405,312.69612c.40263-2.22632,1.39737-2.55,3.2184-3.78468,5.52112-3.1853,11.60133-6.58052,17.15828-9.76961.51001-.16998.97686-.32671,1.42069-.33255.6-.00789,1.11045.20334,1.11045.20334l.18874.05152.20211.07728c-1.68947-2.32105-3.81877-1.8972-4.91523-1.37023l-16.87,9.73999c-1.46607.66126-2.93845,2.65342-1.66843,4.85337"/>
  <text class="cls-19" transform="translate(86.88495 320.50591) rotate(-30) scale(1.52678 1)"><tspan x="0" y="0">S</tspan><tspan class="cls-16" x="2.02472" y="0">T</tspan><tspan class="cls-21" x="3.75777" y="0">A</tspan><tspan class="cls-22" x="6.27132" y="0">R</tspan><tspan x="8.51767" y="0">T</tspan></text>
  <text class="cls-18" transform="translate(121.37992 320.50622) rotate(-30) scale(1.55826 1)"><tspan x="0" y="0">RES</tspan><tspan class="cls-1" x="6.23254" y="0">E</tspan><tspan x="8.31146" y="0">T</tspan></text>
  <rect class="cls-25" x="2.5013" y="23.00737" width="209.70947" height="3.66316"/>
  <circle class="cls-11" cx="33.99693" cy="107.06" r="2.19211"/>
  <g>
    <polygon class="cls-8" points="46.31009 217.06 46.31009 233.06 30.31009 233.06 30.31009 250.06 46.31009 250.06 46.31009 265.06 63.31009 265.06 63.31009 250.06 78.31009 250.06 78.31009 233.06 63.31009 233.06 63.31009 217.06 46.31009 217.06"/>
    <rect class="cls-2" x="47.31009" y="218.06" width="15" height="3"/>
    <rect class="cls-2" x="31.31009" y="234.06" width="16" height="3"/>
    <rect class="cls-2" x="62.31009" y="234.06" width="15" height="3"/>
    <rect class="cls-17" x="47.31009" y="261.06" width="15" height="3"/>
  </g>
</svg>