<?xml version="1.0" encoding="UTF-8"?>
<svg id="Layer_1" data-name="Layer 1" xmlns="http://www.w3.org/2000/svg" viewBox="0 0 214.23 380.34">
  <defs>
    <style>
      .cls-1, .cls-2 {
        fill: #fff;
      }

      .cls-3 {
        fill: #f26965;
      }

      .cls-3, .cls-4, .cls-5, .cls-6, .cls-7, .cls-8, .cls-9 {
        stroke-miterlimit: 10;
      }

      .cls-3, .cls-4, .cls-5, .cls-7, .cls-8, .cls-10, .cls-9 {
        stroke: #5d1e36;
      }

      .cls-3, .cls-5, .cls-7, .cls-8 {
        stroke-width: 2px;
      }

      .cls-11, .cls-12, .cls-2 {
        isolation: isolate;
      }

      .cls-4 {
        stroke-width: 1.99px;
      }

      .cls-4, .cls-10 {
        fill: #b0b0b0;
      }

      .cls-13 {
        fill: #b5e3f1;
      }

      .cls-5, .cls-14 {
        fill: none;
      }

      .cls-15 {
        fill: #eaf7fc;
      }

      .cls-16 {
        fill: #b3d780;
      }

      .cls-17 {
        fill: #6d6e71;
      }

      .cls-6 {
        fill: #5d1e36;
        stroke: #5d142c;
        stroke-width: 3px;
      }

      .cls-18 {
        fill: #85c6ce;
      }

      .cls-12 {
        fill: #80c6ce;
        opacity: .64;
      }

      .cls-2 {
        font-family: ArialMT, Arial;
        font-size: 12px;
      }

      .cls-7 {
        fill: #8f6662;
      }

      .cls-8 {
        fill: #6d4e4b;
      }

      .cls-10 {
        stroke-miterlimit: 10;
        stroke-width: 2px;
      }

      .cls-19 {
        fill: #c2de9c;
      }

      .cls-20 {
        fill: #231f20;
      }

      .cls-9 {
        fill: #ef3738;
      }
    </style>
  </defs>
  <g>
    <path class="cls-15" d="m16.47,379.77h-4.6c-.88-.03-4.19-.27-7.08-2.9-2.9-2.65-3.43-5.95-3.54-6.82.17-115.88.34-231.75.51-347.62h7.52v349.51c.25.76.62,1.6,1.13,2.47,1.85,3.07,4.55,4.64,6.06,5.36Z"/>
    <path class="cls-15" d="m19.84,1.7c-.76.15-6.37,2-8.29,4.27-1.67,1.99-2.19,5.16-2.27,5.97v10.49H1.76c-.15-3.88.15-7.85,0-11.72.26-1.07.72-4.12,3.73-6.54,2.14-1.72,4.36-2.26,5.49-2.46,2.95,0,5.91-.01,8.86-.01Z"/>
    <path class="cls-13" d="m9.28,22.43v349.51c.25.76.62,1.6,1.13,2.47.1.16.19.32.3.47.07.11.14.22.22.32.11.16.22.31.34.45.11.15.22.29.34.43.24.28.48.54.72.78.12.12.23.24.35.35.02.02.04.03.06.05.14.13.28.26.42.37.87.75,1.74,1.31,2.47,1.71h.01c.15.08.3.16.44.23.13.07.27.14.39.2h.01c56.56-.04,113.14-.08,169.7-.12.18-.05.36-.12.56-.19s.41-.15.62-.24c.03-.01.06-.02.1-.04.19-.08.39-.17.59-.26.33-.15.69-.33,1.06-.53.15-.08.3-.17.46-.26.62-.35,1.27-.76,1.96-1.25.1-.07.2-.14.31-.22.57-.4,1.16-.86,1.76-1.38.29-.24.58-.49.88-.76.4-.36.8-.73,1.2-1.14.18-.18.36-.36.54-.54.03-.03.06-.06.08-.09.2-.21.4-.42.6-.64.41-.43.81-.89,1.22-1.38.2-.24.41-.49.61-.74.16-.2.33-.41.49-.62.66-.84,1.33-1.75,1.99-2.73,3.63-5.35,4.54-10.77,4.93-14.02.06-109.86.13-219.71.18-329.56v-.63s-197.04,0-197.04,0Zm13.2,29.24c0-1.42.56-2.7,1.46-3.64.96-.99,2.3-1.6,3.78-1.6h153.85c2.9,0,5.24,2.34,5.24,5.24v116.97c0,3.73-1.3,7.16-3.47,9.86-2.89,3.57-7.3,5.86-12.25,5.86H27.72c-2.9,0-5.24-2.34-5.24-5.24,0,0,0-127.45,0-127.45Zm109.92,253.67l-17.16,9.91c-2.2,1.26-5,.51-6.27-1.68l-.28-.49c-1.27-2.2-.52-5,1.68-6.27l16.87-9.74c2.35-1.36,5.36-.55,6.72,1.8l.12.2c1.26,2.2.51,5-1.68,6.27Zm2.83,53.8c0,.49-.4.9-.9.9s-.9-.41-.9-.9.4-.9.9-.9.9.4.9.9Zm-5.48-17.41c0,.5-.4.9-.9.9s-.9-.4-.9-.9.4-.9.9-.9.9.41.9.9Zm-31.21-36.33l-17.15,9.91c-2.2,1.26-5,.51-6.27-1.68l-.28-.49c-1.27-2.2-.52-5,1.68-6.27l16.87-9.74c2.35-1.36,5.36-.55,6.71,1.8l.12.2c1.27,2.2.52,5-1.68,6.27h0Zm-43.59-99.06c19.74,0,35.75,16.01,35.75,35.75s-16.01,35.75-35.75,35.75-35.75-16.01-35.75-35.75,16.01-35.75,35.75-35.75Zm84.73,134.65c.5,0,.9.4.9.9s-.4.9-.9.9-.9-.41-.9-.9.4-.9.9-.9Zm-.9-7.57c0-.5.4-.9.9-.9s.9.4.9.9-.4.9-.9.9-.9-.41-.9-.9Zm1.93,17.03c0,.49-.41.9-.9.9s-.9-.41-.9-.9.4-.9.9-.9.9.4.9.9Zm4.4,9.49c-.49,0-.9-.4-.9-.9s.41-.9.9-.9.9.41.9.9-.4.9-.9.9Zm.95,7.84c0,.5-.4.9-.9.9s-.9-.4-.9-.9.4-.9.9-.9.9.41.9.9Zm4.25-27.03c.49,0,.9.4.9.9s-.41.9-.9.9-.9-.4-.9-.9.4-.9.9-.9Zm-.9-7.33c0-.5.4-.9.9-.9s.9.4.9.9-.41.9-.9.9-.9-.41-.9-.9Zm1.92,16.79c0,.5-.4.9-.9.9s-.9-.4-.9-.9.41-.9.9-.9.9.4.9.9Zm4.41,9.5c-.5,0-.9-.41-.9-.9s.4-.9.9-.9.9.4.9.9-.4.9-.9.9Zm1.34,7.87c0,.5-.4.9-.9.9s-.9-.4-.9-.9.4-.9.9-.9.9.41.9.9Zm4.25-26.5c.5,0,.9.41.9.9s-.4.9-.9.9-.9-.4-.9-.9.4-.9.9-.9Zm-.9-7.86c0-.5.4-.9.9-.9s.9.4.9.9-.4.9-.9.9-.9-.4-.9-.9Zm1.92,17.32c0,.5-.4.9-.9.9s-.9-.4-.9-.9.41-.9.9-.9.9.41.9.9Zm4.28,16.14c.5,0,.9.41.9.9s-.4.9-.9.9-.9-.4-.9-.9.41-.9.9-.9Zm-.77-7.54c0-.5.4-.9.9-.9s.9.4.9.9-.4.9-.9.9-.9-.41-.9-.9Zm5.92-18.06c.5,0,.9.41.9.9s-.4.9-.9.9-.9-.4-.9-.9.4-.9.9-.9Zm-.9-7.86c0-.5.4-.9.9-.9s.9.4.9.9-.4.9-.9.9-.9-.4-.9-.9Zm1.93,17.32c0,.5-.41.9-.9.9s-.9-.4-.9-.9.4-.9.9-.9.9.41.9.9Zm4.4,9.5c-.49,0-.9-.41-.9-.9s.41-.9.9-.9.9.4.9.9-.4.9-.9.9Zm1.19,7.54c0,.5-.41.9-.9.9s-.9-.4-.9-.9.4-.9.9-.9.9.41.9.9Zm4.24-26.5c.5,0,.9.41.9.9s-.4.9-.9.9-.9-.4-.9-.9.41-.9.9-.9Zm-.9-7.86c0-.5.41-.9.9-.9s.9.4.9.9-.4.9-.9.9-.9-.4-.9-.9Zm1.93,17.32c0,.5-.4.9-.9.9s-.9-.4-.9-.9.4-.9.9-.9.9.41.9.9Zm4.41,9.5c-.5,0-.9-.41-.9-.9s.4-.9.9-.9.9.4.9.9-.41.9-.9.9Zm5.43-17.49c-.5,0-.9-.4-.9-.9s.4-.9.9-.9.9.4.9.9-.41.9-.9.9Zm-11.23-86.34l-31.82,11.69c-9.91,3.64-20.88-1.44-24.52-11.34-.8-2.17-1.17-4.39-1.17-6.58,0-7.78,4.78-15.09,12.52-17.93l31.82-11.69c9.9-3.64,20.87,1.44,24.51,11.34.8,2.17,1.18,4.4,1.18,6.58,0,7.78-4.79,15.09-12.52,17.93Z"/>
    <circle class="cls-14" cx="54.95" cy="242.09" r="35.75"/>
    <path class="cls-14" d="m100.22,299.13c1.27,2.2.52,5-1.68,6.27l-17.15,9.91c-2.2,1.26-5,.51-6.27-1.68l-.28-.49c-1.27-2.2-.52-5,1.68-6.27l16.87-9.74c2.35-1.36,5.36-.55,6.71,1.8l.12.2h0Z"/>
    <path class="cls-14" d="m129.75,341.73c0,.5-.4.9-.9.9s-.9-.4-.9-.9.4-.9.9-.9.9.41.9.9Z"/>
    <path class="cls-14" d="m132.4,305.34l-17.16,9.91c-2.2,1.26-5,.51-6.27-1.68l-.28-.49c-1.27-2.2-.52-5,1.68-6.27l16.87-9.74c2.35-1.36,5.36-.55,6.72,1.8l.12.2c1.26,2.2.51,5-1.68,6.27Z"/>
    <path class="cls-14" d="m135.23,359.14c0,.49-.4.9-.9.9s-.9-.41-.9-.9.4-.9.9-.9.9.4.9.9Z"/>
    <path class="cls-14" d="m138.78,341.89c0-.5.4-.9.9-.9s.9.4.9.9-.4.9-.9.9-.9-.41-.9-.9Z"/>
    <path class="cls-14" d="m138.78,333.42c0-.5.4-.9.9-.9s.9.4.9.9-.4.9-.9.9-.9-.41-.9-.9Z"/>
    <path class="cls-14" d="m140.71,350.45c0,.49-.41.9-.9.9s-.9-.41-.9-.9.4-.9.9-.9.9.4.9.9Z"/>
    <path class="cls-14" d="m144.21,359.04c0-.49.41-.9.9-.9s.9.41.9.9-.4.9-.9.9-.9-.4-.9-.9Z"/>
    <path class="cls-14" d="m146.06,367.78c0,.5-.4.9-.9.9s-.9-.4-.9-.9.4-.9.9-.9.9.41.9.9Z"/>
    <path class="cls-14" d="m149.41,341.65c0-.5.4-.9.9-.9s.9.4.9.9-.41.9-.9.9-.9-.4-.9-.9Z"/>
    <path class="cls-14" d="m150.31,332.52c.49,0,.9.4.9.9s-.41.9-.9.9-.9-.41-.9-.9.4-.9.9-.9Z"/>
    <path class="cls-14" d="m151.33,350.21c0,.5-.4.9-.9.9s-.9-.4-.9-.9.41-.9.9-.9.9.4.9.9Z"/>
    <path class="cls-14" d="m155.74,359.71c-.5,0-.9-.41-.9-.9s.4-.9.9-.9.9.4.9.9-.4.9-.9.9Z"/>
    <path class="cls-14" d="m157.08,367.58c0,.5-.4.9-.9.9s-.9-.4-.9-.9.4-.9.9-.9.9.41.9.9Z"/>
    <path class="cls-14" d="m160.43,341.98c0-.49.4-.9.9-.9s.9.41.9.9-.4.9-.9.9-.9-.4-.9-.9Z"/>
    <path class="cls-14" d="m161.33,332.32c.5,0,.9.4.9.9s-.4.9-.9.9-.9-.4-.9-.9.4-.9.9-.9Z"/>
    <path class="cls-14" d="m162.35,350.54c0,.5-.4.9-.9.9s-.9-.4-.9-.9.41-.9.9-.9.9.41.9.9Z"/>
    <path class="cls-14" d="m167.53,367.58c0,.5-.4.9-.9.9s-.9-.4-.9-.9.41-.9.9-.9.9.41.9.9Z"/>
    <path class="cls-14" d="m167.66,359.14c0,.49-.4.9-.9.9s-.9-.41-.9-.9.4-.9.9-.9.9.4.9.9Z"/>
    <path class="cls-14" d="m170.88,341.98c0-.49.4-.9.9-.9s.9.41.9.9-.4.9-.9.9-.9-.4-.9-.9Z"/>
    <path class="cls-14" d="m171.78,332.32c.5,0,.9.4.9.9s-.4.9-.9.9-.9-.4-.9-.9.4-.9.9-.9Z"/>
    <path class="cls-14" d="m172.81,350.54c0,.5-.41.9-.9.9s-.9-.4-.9-.9.4-.9.9-.9.9.41.9.9Z"/>
    <path class="cls-14" d="m177.21,360.04c-.49,0-.9-.41-.9-.9s.41-.9.9-.9.9.4.9.9-.4.9-.9.9Z"/>
    <path class="cls-14" d="m178.4,367.58c0,.5-.41.9-.9.9s-.9-.4-.9-.9.4-.9.9-.9.9.41.9.9Z"/>
    <path class="cls-14" d="m181.74,341.98c0-.49.41-.9.9-.9s.9.41.9.9-.4.9-.9.9-.9-.4-.9-.9Z"/>
    <path class="cls-14" d="m182.64,332.32c.5,0,.9.4.9.9s-.4.9-.9.9-.9-.4-.9-.9.41-.9.9-.9Z"/>
    <path class="cls-14" d="m183.67,350.54c0,.5-.4.9-.9.9s-.9-.4-.9-.9.4-.9.9-.9.9.41.9.9Z"/>
    <path class="cls-14" d="m181.57,46.43H27.72c-1.48,0-2.82.61-3.78,1.6-.9.94-1.46,2.22-1.46,3.64v127.45c0,2.9,2.34,5.24,5.24,5.24h143.37c4.95,0,9.36-2.29,12.25-5.86,2.17-2.7,3.47-6.13,3.47-9.86V51.67c0-2.9-2.34-5.24-5.24-5.24h0Zm-47.77,115.15h-45.84m77.25-76.5v45.08m0,.06v31.36h-31.35"/>
    <path class="cls-14" d="m188.08,358.24c.49,0,.9.4.9.9s-.41.9-.9.9-.9-.41-.9-.9.4-.9.9-.9Z"/>
    <path class="cls-14" d="m193.51,340.75c.49,0,.9.4.9.9s-.41.9-.9.9-.9-.4-.9-.9.4-.9.9-.9Z"/>
    <path class="cls-14" d="m150.46,267.9c-9.91,3.64-20.88-1.44-24.52-11.34-.8-2.17-1.17-4.39-1.17-6.58,0-7.78,4.78-15.09,12.52-17.93l31.82-11.69c9.9-3.64,20.87,1.44,24.51,11.34.8,2.17,1.18,4.4,1.18,6.58,0,7.78-4.79,15.09-12.52,17.93l-31.82,11.69Z"/>
    <path class="cls-13" d="m191.74,1.45v20.98H22.48V1.69c56.42-.08,112.84-.16,169.26-.24Z"/>
    <path class="cls-13" d="m22.48,1.69v20.74h-13.2v-10.49c.08-.81.6-3.98,2.27-5.97,1.92-2.27,7.53-4.12,8.29-4.27.88,0,1.76,0,2.64,0Z"/>
    <path class="cls-18" d="m213.47,13.84v8.59h-7.15c.01-3.07.01-6.63.01-9.63-.06-1.09-.37-4.2-2.75-7.02-1.19-1.41-3.68-3.25-5.38-4.34,1.67,0,3.33-.01,5-.01,1.01.14,4.38.75,7.11,3.69,3.3,3.56,3.19,7.88,3.16,8.72Z"/>
    <path class="cls-13" d="m206.33,12.8c0,3,0,6.56-.01,9.63h-14.58V1.45c2.15,0,4.31,0,6.46,0,1.7,1.09,4.19,2.93,5.38,4.34,2.38,2.82,2.69,5.93,2.75,7.02Z"/>
    <path class="cls-18" d="m213.47,22.43v332.97c-.62,2.76-2.51,9.57-8.59,15.66-6.09,6.08-12.91,7.98-15.67,8.59h-3.03c3.06-.95,9.03-4.17,15.03-13.01,3.63-5.35,4.54-10.77,4.93-14.02.06-109.86.13-219.71.18-329.56v-.63s7.15,0,7.15,0Z"/>
    <path class="cls-14" d="m181.57,46.43H27.72c-1.48,0-2.82.61-3.78,1.6-.9.94-1.46,2.22-1.46,3.64v127.45c0,2.9,2.34,5.24,5.24,5.24h143.37c4.95,0,9.36-2.29,12.25-5.86,2.17-2.7,3.47-6.13,3.47-9.86V51.67c0-2.9-2.34-5.24-5.24-5.24h0Zm-47.77,115.15h-45.84m77.25-31.36v31.36h-31.35"/>
    <circle class="cls-14" cx="54.95" cy="242.09" r="35.75"/>
    <path class="cls-14" d="m194.8,238.28c0,7.78-4.79,15.09-12.52,17.93l-31.82,11.69c-9.91,3.64-20.88-1.44-24.52-11.34-.8-2.17-1.17-4.39-1.17-6.58,0-7.78,4.78-15.09,12.52-17.93l31.82-11.69c9.9-3.64,20.87,1.44,24.51,11.34.8,2.17,1.18,4.4,1.18,6.58h0Z"/>
    <circle class="cls-14" cx="144.75" cy="249.82" r="11.2"/>
    <circle class="cls-14" cx="174.78" cy="238.62" r="11.2"/>
    <polygon class="cls-14" points="48.12 219.23 62.9 219.23 62.9 234.38 79.57 234.38 79.57 249.82 63.84 249.82 63.84 265.08 48.12 265.08 48.12 249.82 32.2 249.82 32.2 234.76 48.12 234.76 48.12 219.23"/>
    <path class="cls-13" d="m98.54,305.4l-17.15,9.91c-2.2,1.26-5,.51-6.27-1.68l-.28-.49c-1.27-2.2-.52-5,1.68-6.27l16.87-9.74c2.35-1.36,5.36-.55,6.71,1.8l.12.2c1.27,2.2.52,5-1.68,6.27h0Z"/>
    <path class="cls-13" d="m132.4,305.34l-17.16,9.91c-2.2,1.26-5,.51-6.27-1.68l-.28-.49c-1.27-2.2-.52-5,1.68-6.27l16.87-9.74c2.35-1.36,5.36-.55,6.72,1.8l.12.2c1.26,2.2.51,5-1.68,6.27Z"/>
    <path class="cls-20" d="m140.58,333.42c0,.49-.4.9-.9.9s-.9-.41-.9-.9.4-.9.9-.9.9.4.9.9Z"/>
    <path class="cls-20" d="m151.21,333.42c0,.49-.41.9-.9.9s-.9-.41-.9-.9.4-.9.9-.9.9.4.9.9Z"/>
    <path class="cls-20" d="m129.75,341.73c0,.5-.4.9-.9.9s-.9-.4-.9-.9.4-.9.9-.9.9.41.9.9Z"/>
    <path class="cls-20" d="m140.58,341.89c0,.49-.4.9-.9.9s-.9-.41-.9-.9.4-.9.9-.9.9.4.9.9Z"/>
    <path class="cls-20" d="m151.21,341.65c0,.5-.41.9-.9.9s-.9-.4-.9-.9.4-.9.9-.9.9.4.9.9Z"/>
    <path class="cls-20" d="m162.23,341.98c0,.5-.4.9-.9.9s-.9-.4-.9-.9.4-.9.9-.9.9.41.9.9Z"/>
    <path class="cls-20" d="m162.23,333.22c0,.5-.4.9-.9.9s-.9-.4-.9-.9.4-.9.9-.9.9.4.9.9Z"/>
    <path class="cls-20" d="m172.68,341.98c0,.5-.4.9-.9.9s-.9-.4-.9-.9.4-.9.9-.9.9.41.9.9Z"/>
    <path class="cls-20" d="m172.68,333.22c0,.5-.4.9-.9.9s-.9-.4-.9-.9.4-.9.9-.9.9.4.9.9Z"/>
    <path class="cls-20" d="m183.54,341.98c0,.5-.4.9-.9.9s-.9-.4-.9-.9.41-.9.9-.9.9.41.9.9Z"/>
    <path class="cls-20" d="m183.54,333.22c0,.5-.4.9-.9.9s-.9-.4-.9-.9.41-.9.9-.9.9.4.9.9Z"/>
    <path class="cls-20" d="m194.41,341.65c0,.5-.41.9-.9.9s-.9-.4-.9-.9.4-.9.9-.9.9.4.9.9Z"/>
    <path class="cls-20" d="m140.71,350.45c0,.49-.41.9-.9.9s-.9-.41-.9-.9.4-.9.9-.9.9.4.9.9Z"/>
    <path class="cls-20" d="m151.33,350.21c0,.5-.4.9-.9.9s-.9-.4-.9-.9.41-.9.9-.9.9.4.9.9Z"/>
    <path class="cls-20" d="m162.35,350.54c0,.5-.4.9-.9.9s-.9-.4-.9-.9.41-.9.9-.9.9.41.9.9Z"/>
    <path class="cls-20" d="m172.81,350.54c0,.5-.41.9-.9.9s-.9-.4-.9-.9.4-.9.9-.9.9.41.9.9Z"/>
    <path class="cls-20" d="m183.67,350.54c0,.5-.4.9-.9.9s-.9-.4-.9-.9.4-.9.9-.9.9.41.9.9Z"/>
    <path class="cls-20" d="m146.01,359.04c0,.5-.4.9-.9.9s-.9-.4-.9-.9.41-.9.9-.9.9.41.9.9Z"/>
    <path class="cls-20" d="m156.64,358.81c0,.49-.4.9-.9.9s-.9-.41-.9-.9.4-.9.9-.9.9.4.9.9Z"/>
    <path class="cls-20" d="m167.66,359.14c0,.49-.4.9-.9.9s-.9-.41-.9-.9.4-.9.9-.9.9.4.9.9Z"/>
    <path class="cls-20" d="m178.11,359.14c0,.49-.4.9-.9.9s-.9-.41-.9-.9.41-.9.9-.9.9.4.9.9Z"/>
    <path class="cls-20" d="m188.98,359.14c0,.49-.41.9-.9.9s-.9-.41-.9-.9.4-.9.9-.9.9.4.9.9Z"/>
    <path class="cls-20" d="m135.23,359.14c0,.49-.4.9-.9.9s-.9-.41-.9-.9.4-.9.9-.9.9.4.9.9Z"/>
    <path class="cls-20" d="m146.06,367.78c0,.5-.4.9-.9.9s-.9-.4-.9-.9.4-.9.9-.9.9.41.9.9Z"/>
    <path class="cls-20" d="m157.08,367.58c0,.5-.4.9-.9.9s-.9-.4-.9-.9.4-.9.9-.9.9.41.9.9Z"/>
    <path class="cls-20" d="m167.53,367.58c0,.5-.4.9-.9.9s-.9-.4-.9-.9.41-.9.9-.9.9.41.9.9Z"/>
    <path class="cls-20" d="m178.4,367.58c0,.5-.41.9-.9.9s-.9-.4-.9-.9.4-.9.9-.9.9.41.9.9Z"/>
    <line class="cls-14" x1="45.84" y1="107.14" x2="45.47" y2="107.49"/>
    <line class="cls-14" x1="45.84" y1="133.74" x2="45.47" y2="134.09"/>
    <line class="cls-14" x1="87.96" y1="161.58" x2="87.53" y2="162.01"/>
    <line class="cls-14" x1="165.55" y1="129.88" x2="165.21" y2="130.22"/>
    <line class="cls-14" x1="133.86" y1="161.58" x2="133.43" y2="162.01"/>
    <path class="cls-14" d="m198.2,1.44c-.68-.44-1.24-.76-1.53-.87"/>
  </g>
  <path class="cls-5" d="m210.06,4.69c-2.73-2.94-6.1-3.55-7.11-3.69-2.02,0-4.04.01-6.06.01h-.01c-1.8,0-3.59,0-5.39,0-56.42.08-112.84.16-169.26.24-3.83,0-7.67,0-11.5.02-1.13.2-3.35.74-5.49,2.46-.63.5-1.14,1.03-1.56,1.56h0c-1.63,2.05-1.96,4.13-2.17,4.98.15,3.87-.15,7.84,0,11.72v.43c-.17,115.73-.34,231.45-.51,347.19.11.87.64,4.17,3.54,6.82,2.89,2.63,6.2,2.87,7.08,2.9h3.4c57.24-.04,114.48-.08,171.72-.12h2.22c2.76-.61,9.58-2.51,15.67-8.59.38-.38.74-.77,1.09-1.15.22-.24.43-.48.63-.73,4.73-5.55,6.31-11.3,6.87-13.78V13.41c.03-.84.14-5.16-3.16-8.72Z"/>
  <rect class="cls-10" x="123.48" y="224.6" width="72.1" height="38.2" rx="19.1" ry="19.1" transform="translate(-74.25 69.95) rotate(-20.17)"/>
  <circle class="cls-6" cx="139.43" cy="332.99" r=".9"/>
  <circle class="cls-6" cx="150.36" cy="333.1" r=".89"/>
  <circle class="cls-6" cx="161.3" cy="332.91" r=".89"/>
  <circle class="cls-6" cx="171.68" cy="332.91" r=".89"/>
  <circle class="cls-6" cx="182.47" cy="332.91" r=".89"/>
  <g>
    <circle class="cls-3" cx="144.5" cy="249.39" r="11.2"/>
    <path class="cls-1" d="m146.53,259.37c-.6.12-1.28.25-2.09.25-5.65,0-10.19-4.61-10.19-10.18,0-2.57.9-4.92,2.53-6.7-.43,1.95-.73,5.56,1.1,9.31,2.04,4.19,5.75,6.29,8.65,7.32h0Z"/>
  </g>
  <g>
    <circle class="cls-3" cx="174.53" cy="238.19" r="11.2"/>
    <path class="cls-1" d="m176.56,248.17c-.6.12-1.28.25-2.09.25-5.65,0-10.19-4.61-10.19-10.18,0-2.57.9-4.92,2.53-6.7-.43,1.95-.73,5.56,1.1,9.31,2.04,4.19,5.75,6.29,8.65,7.32h0Z"/>
  </g>
  <g>
    <polygon class="cls-19" points="164.59 85.62 164.59 130.7 133.18 162.12 87.34 162.12 164.59 85.62"/>
    <polygon class="cls-16" points="164.59 67.81 164.59 85.56 87.28 162.12 45.22 162.12 45.22 134.28 114.82 67.81 164.59 67.81"/>
    <polygon class="cls-16" points="164.59 130.76 164.59 162.12 133.24 162.12 164.59 130.76"/>
    <polygon class="cls-16" points="86.83 67.81 45.22 107.6 45.22 67.81 86.83 67.81"/>
    <polygon class="cls-19" points="114.74 67.81 45.22 134.2 45.22 107.68 86.91 67.81 114.74 67.81"/>
  </g>
  <line class="cls-5" x1="1.51" y1="22" x2="213.22" y2="22"/>
  <line class="cls-5" x1="191.49" y1="22" x2="191.49" y2="1.01"/>
  <line class="cls-5" x1="22.23" y1="22" x2="22.23" y2="1"/>
  <path class="cls-8" d="m181.32,46H27.47c-1.69,0-3.19.79-4.15,2.03-.69.89-1.09,2-1.09,3.21v127.45c0,2.9,2.34,5.24,5.24,5.24h143.37c4.74,0,8.99-2.1,11.88-5.43,2.39-2.75,3.84-6.35,3.84-10.29V51.24c0-2.9-2.34-5.24-5.24-5.24Zm-16.36,115.58h-.37v.43H44.85v-94.74h.37v-.43h119.74v94.74Z"/>
  <line class="cls-5" x1="32.33" y1="55.47" x2="92.2" y2="55.47"/>
  <line class="cls-5" x1="160.79" y1="55.47" x2="178.23" y2="55.47"/>
  <circle class="cls-4" cx="54.81" cy="241.56" r="35.5"/>
  <circle class="cls-6" cx="128.6" cy="341.3" r=".9"/>
  <circle class="cls-6" cx="139.8" cy="341.52" r=".89"/>
  <circle class="cls-6" cx="150.36" cy="341.28" r=".89"/>
  <circle class="cls-6" cx="161.3" cy="341.61" r=".89"/>
  <circle class="cls-6" cx="171.68" cy="341.61" r=".89"/>
  <circle class="cls-6" cx="182.47" cy="341.61" r=".89"/>
  <circle class="cls-6" cx="193.26" cy="341.28" r=".89"/>
  <circle class="cls-6" cx="139.56" cy="350.02" r=".9"/>
  <circle class="cls-6" cx="150.48" cy="349.78" r=".89"/>
  <circle class="cls-6" cx="161.43" cy="350.11" r=".89"/>
  <circle class="cls-6" cx="171.81" cy="350.11" r=".89"/>
  <circle class="cls-6" cx="182.6" cy="350.11" r=".89"/>
  <circle class="cls-6" cx="145.2" cy="358.55" r=".89"/>
  <circle class="cls-6" cx="155.75" cy="358.32" r=".89"/>
  <circle class="cls-6" cx="166.7" cy="358.65" r=".89"/>
  <circle class="cls-6" cx="177.08" cy="358.65" r=".89"/>
  <circle class="cls-6" cx="187.87" cy="358.65" r=".89"/>
  <circle class="cls-6" cx="134.08" cy="358.71" r=".9"/>
  <circle class="cls-6" cx="145.24" cy="367.23" r=".89"/>
  <circle class="cls-6" cx="156.19" cy="367.04" r=".89"/>
  <circle class="cls-6" cx="166.57" cy="367.04" r=".89"/>
  <circle class="cls-6" cx="177.36" cy="367.04" r=".89"/>
  <g class="cls-11">
    <text class="cls-2" transform="translate(142.35 253.5) rotate(-20.17)"><tspan x="0" y="0">+</tspan></text>
  </g>
  <g class="cls-11">
    <text class="cls-2" transform="translate(174.63 241.04) rotate(-20.17)"><tspan x="0" y="0">-</tspan></text>
  </g>
  <rect class="cls-12" x="2.5" y="23.01" width="209.71" height="3.66"/>
  <circle class="cls-9" cx="34" cy="107.06" r="2.19"/>
  <g>
    <polygon class="cls-7" points="46.31 217.06 46.31 233.06 30.31 233.06 30.31 250.06 46.31 250.06 46.31 265.06 63.31 265.06 63.31 250.06 78.31 250.06 78.31 233.06 63.31 233.06 63.31 217.06 46.31 217.06"/>
    <rect class="cls-1" x="47.31" y="218.06" width="15" height="3"/>
    <rect class="cls-1" x="31.31" y="234.06" width="16" height="3"/>
    <rect class="cls-1" x="62.31" y="234.06" width="15" height="3"/>
    <rect class="cls-17" x="47.31" y="261.06" width="15" height="3"/>
  </g>
</svg>