<?xml version="1.0" encoding="utf-8"?>
<!-- Generator: Adobe Illustrator 27.1.1, SVG Export Plug-In . SVG Version: 6.00 Build 0)  -->
<svg version="1.1" id="Layer_1" xmlns="http://www.w3.org/2000/svg" xmlns:xlink="http://www.w3.org/1999/xlink" x="0px" y="0px"
	 viewBox="0 0 214.2 380.3" style="enable-background:new 0 0 214.2 380.3;" xml:space="preserve">
<style type="text/css">
	.st0{fill:#EAF7FC;}
	.st1{fill:#B5E3F1;}
	.st2{fill:none;}
	.st3{fill:#85C6CE;}
	.st4{fill:#231F20;}
	.st5{fill:none;stroke:#5D1E36;stroke-width:2;stroke-miterlimit:10;}
	.st6{fill:#5D1E36;stroke:#5D142C;stroke-width:3;stroke-miterlimit:10;}
	.st7{fill:#C2DE9C;}
	.st8{fill:#B3D780;}
	.st9{fill:#6D4E4B;stroke:#5D1E36;stroke-width:2;stroke-miterlimit:10;}
	.st10{fill:#B0B0B0;stroke:#5D1E36;stroke-width:1.99;stroke-miterlimit:10;}
	.st11{opacity:0.64;fill:#80C6CE;enable-background:new    ;}
	.st12{fill:#EF3738;stroke:#5D1E36;stroke-miterlimit:10;}
	.st13{fill:#8F6662;stroke:#5D1E36;stroke-width:2;stroke-miterlimit:10;}
	.st14{fill:#FFFFFF;}
	.st15{fill:#6D6E71;}
</style>
<g>
	<path class="st0" d="M16.5,379.8h-4.6c-0.9,0-4.2-0.3-7.1-2.9c-2.9-2.6-3.4-6-3.5-6.8C1.4,254.2,1.6,138.3,1.8,22.4h7.5v349.5
		c0.2,0.8,0.6,1.6,1.1,2.5C12.3,377.5,15,379.1,16.5,379.8z"/>
	<path class="st0" d="M19.8,1.7c-0.8,0.1-6.4,2-8.3,4.3c-1.7,2-2.2,5.2-2.3,6v10.5H1.8c-0.1-3.9,0.1-7.9,0-11.7
		C2,9.6,2.5,6.6,5.5,4.2C7.6,2.5,9.9,1.9,11,1.7C13.9,1.7,16.9,1.7,19.8,1.7z"/>
	<path class="st1" d="M9.3,22.4v349.5c0.2,0.8,0.6,1.6,1.1,2.5c0.1,0.2,0.2,0.3,0.3,0.5c0.1,0.1,0.1,0.2,0.2,0.3
		c0.1,0.2,0.2,0.3,0.3,0.5c0.1,0.1,0.2,0.3,0.3,0.4c0.2,0.3,0.5,0.5,0.7,0.8c0.1,0.1,0.2,0.2,0.4,0.4c0,0,0,0,0.1,0
		c0.1,0.1,0.3,0.3,0.4,0.4c0.9,0.8,1.7,1.3,2.5,1.7h0c0.1,0.1,0.3,0.2,0.4,0.2c0.1,0.1,0.3,0.1,0.4,0.2h0
		c56.6,0,113.1-0.1,169.7-0.1c0.2,0,0.4-0.1,0.6-0.2s0.4-0.1,0.6-0.2c0,0,0.1,0,0.1,0c0.2-0.1,0.4-0.2,0.6-0.3
		c0.3-0.1,0.7-0.3,1.1-0.5c0.1-0.1,0.3-0.2,0.5-0.3c0.6-0.4,1.3-0.8,2-1.2c0.1-0.1,0.2-0.1,0.3-0.2c0.6-0.4,1.2-0.9,1.8-1.4
		c0.3-0.2,0.6-0.5,0.9-0.8c0.4-0.4,0.8-0.7,1.2-1.1c0.2-0.2,0.4-0.4,0.5-0.5c0,0,0.1-0.1,0.1-0.1c0.2-0.2,0.4-0.4,0.6-0.6
		c0.4-0.4,0.8-0.9,1.2-1.4c0.2-0.2,0.4-0.5,0.6-0.7c0.2-0.2,0.3-0.4,0.5-0.6c0.7-0.8,1.3-1.8,2-2.7c3.6-5.4,4.5-10.8,4.9-14
		c0.1-109.9,0.1-219.7,0.2-329.6v-0.6L9.3,22.4L9.3,22.4z M22.5,51.7c0-1.4,0.6-2.7,1.5-3.6c1-1,2.3-1.6,3.8-1.6h153.9
		c2.9,0,5.2,2.3,5.2,5.2v117c0,3.7-1.3,7.2-3.5,9.9c-2.9,3.6-7.3,5.9-12.2,5.9H27.7c-2.9,0-5.2-2.3-5.2-5.2V51.7z M132.4,305.3
		l-17.2,9.9c-2.2,1.3-5,0.5-6.3-1.7l-0.3-0.5c-1.3-2.2-0.5-5,1.7-6.3l16.9-9.7c2.3-1.4,5.4-0.5,6.7,1.8l0.1,0.2
		C135.3,301.3,134.6,304.1,132.4,305.3L132.4,305.3z M135.2,359.1c0,0.5-0.4,0.9-0.9,0.9s-0.9-0.4-0.9-0.9s0.4-0.9,0.9-0.9
		S135.2,358.6,135.2,359.1z M129.8,341.7c0,0.5-0.4,0.9-0.9,0.9s-0.9-0.4-0.9-0.9s0.4-0.9,0.9-0.9S129.8,341.2,129.8,341.7z
		 M98.5,305.4l-17.2,9.9c-2.2,1.3-5,0.5-6.3-1.7l-0.3-0.5c-1.3-2.2-0.5-5,1.7-6.3l16.9-9.7c2.3-1.4,5.4-0.5,6.7,1.8l0.1,0.2
		C101.5,301.3,100.7,304.1,98.5,305.4L98.5,305.4L98.5,305.4z M55,206.3c19.7,0,35.7,16,35.7,35.8s-16,35.8-35.8,35.8
		s-35.8-16-35.8-35.8S35.2,206.3,55,206.3z M139.7,341c0.5,0,0.9,0.4,0.9,0.9s-0.4,0.9-0.9,0.9s-0.9-0.4-0.9-0.9
		S139.2,341,139.7,341z M138.8,333.4c0-0.5,0.4-0.9,0.9-0.9s0.9,0.4,0.9,0.9s-0.4,0.9-0.9,0.9S138.8,333.9,138.8,333.4z
		 M140.7,350.4c0,0.5-0.4,0.9-0.9,0.9s-0.9-0.4-0.9-0.9s0.4-0.9,0.9-0.9S140.7,349.9,140.7,350.4z M145.1,359.9
		c-0.5,0-0.9-0.4-0.9-0.9s0.4-0.9,0.9-0.9s0.9,0.4,0.9,0.9S145.6,359.9,145.1,359.9z M146.1,367.8c0,0.5-0.4,0.9-0.9,0.9
		s-0.9-0.4-0.9-0.9s0.4-0.9,0.9-0.9S146.1,367.3,146.1,367.8z M150.3,340.7c0.5,0,0.9,0.4,0.9,0.9s-0.4,0.9-0.9,0.9
		s-0.9-0.4-0.9-0.9S149.8,340.7,150.3,340.7z M149.4,333.4c0-0.5,0.4-0.9,0.9-0.9s0.9,0.4,0.9,0.9s-0.4,0.9-0.9,0.9
		S149.4,333.9,149.4,333.4z M151.3,350.2c0,0.5-0.4,0.9-0.9,0.9s-0.9-0.4-0.9-0.9s0.4-0.9,0.9-0.9S151.3,349.7,151.3,350.2z
		 M155.7,359.7c-0.5,0-0.9-0.4-0.9-0.9s0.4-0.9,0.9-0.9s0.9,0.4,0.9,0.9S156.2,359.7,155.7,359.7z M157.1,367.6
		c0,0.5-0.4,0.9-0.9,0.9s-0.9-0.4-0.9-0.9s0.4-0.9,0.9-0.9S157.1,367.1,157.1,367.6z M161.3,341.1c0.5,0,0.9,0.4,0.9,0.9
		s-0.4,0.9-0.9,0.9s-0.9-0.4-0.9-0.9S160.8,341.1,161.3,341.1z M160.4,333.2c0-0.5,0.4-0.9,0.9-0.9s0.9,0.4,0.9,0.9
		s-0.4,0.9-0.9,0.9S160.4,333.7,160.4,333.2z M162.4,350.5c0,0.5-0.4,0.9-0.9,0.9s-0.9-0.4-0.9-0.9s0.4-0.9,0.9-0.9
		S162.4,350,162.4,350.5z M166.6,366.7c0.5,0,0.9,0.4,0.9,0.9s-0.4,0.9-0.9,0.9s-0.9-0.4-0.9-0.9S166.1,366.7,166.6,366.7z
		 M165.9,359.1c0-0.5,0.4-0.9,0.9-0.9s0.9,0.4,0.9,0.9s-0.4,0.9-0.9,0.9S165.9,359.6,165.9,359.1z M171.8,341.1
		c0.5,0,0.9,0.4,0.9,0.9s-0.4,0.9-0.9,0.9s-0.9-0.4-0.9-0.9S171.3,341.1,171.8,341.1z M170.9,333.2c0-0.5,0.4-0.9,0.9-0.9
		s0.9,0.4,0.9,0.9s-0.4,0.9-0.9,0.9S170.9,333.7,170.9,333.2z M172.8,350.5c0,0.5-0.4,0.9-0.9,0.9s-0.9-0.4-0.9-0.9s0.4-0.9,0.9-0.9
		S172.8,350.1,172.8,350.5z M177.2,360c-0.5,0-0.9-0.4-0.9-0.9s0.4-0.9,0.9-0.9s0.9,0.4,0.9,0.9S177.7,360,177.2,360z M178.4,367.6
		c0,0.5-0.4,0.9-0.9,0.9s-0.9-0.4-0.9-0.9s0.4-0.9,0.9-0.9S178.4,367.1,178.4,367.6z M182.6,341.1c0.5,0,0.9,0.4,0.9,0.9
		s-0.4,0.9-0.9,0.9s-0.9-0.4-0.9-0.9S182.2,341.1,182.6,341.1z M181.7,333.2c0-0.5,0.4-0.9,0.9-0.9s0.9,0.4,0.9,0.9
		s-0.4,0.9-0.9,0.9S181.7,333.7,181.7,333.2z M183.7,350.5c0,0.5-0.4,0.9-0.9,0.9s-0.9-0.4-0.9-0.9s0.4-0.9,0.9-0.9
		S183.7,350.1,183.7,350.5z M188.1,360c-0.5,0-0.9-0.4-0.9-0.9s0.4-0.9,0.9-0.9s0.9,0.4,0.9,0.9S188.6,360,188.1,360z M193.5,342.6
		c-0.5,0-0.9-0.4-0.9-0.9s0.4-0.9,0.9-0.9s0.9,0.4,0.9,0.9S194,342.6,193.5,342.6z M182.3,256.2l-31.8,11.7
		c-9.9,3.6-20.9-1.4-24.5-11.3c-0.8-2.2-1.2-4.4-1.2-6.6c0-7.8,4.8-15.1,12.5-17.9l31.8-11.7c9.9-3.6,20.9,1.4,24.5,11.3
		c0.8,2.2,1.2,4.4,1.2,6.6C194.8,246.1,190,253.4,182.3,256.2L182.3,256.2z"/>
	<circle class="st2" cx="55" cy="242.1" r="35.8"/>
	<path class="st2" d="M100.2,299.1c1.3,2.2,0.5,5-1.7,6.3l-17.2,9.9c-2.2,1.3-5,0.5-6.3-1.7l-0.3-0.5c-1.3-2.2-0.5-5,1.7-6.3
		l16.9-9.7c2.3-1.4,5.4-0.5,6.7,1.8L100.2,299.1L100.2,299.1L100.2,299.1z"/>
	<path class="st2" d="M129.8,341.7c0,0.5-0.4,0.9-0.9,0.9s-0.9-0.4-0.9-0.9s0.4-0.9,0.9-0.9S129.8,341.2,129.8,341.7z"/>
	<path class="st2" d="M132.4,305.3l-17.2,9.9c-2.2,1.3-5,0.5-6.3-1.7l-0.3-0.5c-1.3-2.2-0.5-5,1.7-6.3l16.9-9.7
		c2.3-1.4,5.4-0.5,6.7,1.8l0.1,0.2C135.3,301.3,134.6,304.1,132.4,305.3L132.4,305.3z"/>
	<path class="st2" d="M135.2,359.1c0,0.5-0.4,0.9-0.9,0.9s-0.9-0.4-0.9-0.9s0.4-0.9,0.9-0.9S135.2,358.6,135.2,359.1z"/>
	<path class="st2" d="M138.8,341.9c0-0.5,0.4-0.9,0.9-0.9s0.9,0.4,0.9,0.9s-0.4,0.9-0.9,0.9S138.8,342.4,138.8,341.9z"/>
	<path class="st2" d="M138.8,333.4c0-0.5,0.4-0.9,0.9-0.9s0.9,0.4,0.9,0.9s-0.4,0.9-0.9,0.9S138.8,333.9,138.8,333.4z"/>
	<path class="st2" d="M140.7,350.5c0,0.5-0.4,0.9-0.9,0.9s-0.9-0.4-0.9-0.9s0.4-0.9,0.9-0.9S140.7,350,140.7,350.5z"/>
	<path class="st2" d="M144.2,359c0-0.5,0.4-0.9,0.9-0.9s0.9,0.4,0.9,0.9s-0.4,0.9-0.9,0.9S144.2,359.5,144.2,359z"/>
	<path class="st2" d="M146.1,367.8c0,0.5-0.4,0.9-0.9,0.9s-0.9-0.4-0.9-0.9s0.4-0.9,0.9-0.9S146.1,367.3,146.1,367.8z"/>
	<path class="st2" d="M149.4,341.6c0-0.5,0.4-0.9,0.9-0.9s0.9,0.4,0.9,0.9s-0.4,0.9-0.9,0.9S149.4,342.1,149.4,341.6z"/>
	<path class="st2" d="M150.3,332.5c0.5,0,0.9,0.4,0.9,0.9s-0.4,0.9-0.9,0.9s-0.9-0.4-0.9-0.9S149.8,332.5,150.3,332.5z"/>
	<path class="st2" d="M151.3,350.2c0,0.5-0.4,0.9-0.9,0.9s-0.9-0.4-0.9-0.9s0.4-0.9,0.9-0.9S151.3,349.7,151.3,350.2z"/>
	<path class="st2" d="M155.7,359.7c-0.5,0-0.9-0.4-0.9-0.9s0.4-0.9,0.9-0.9s0.9,0.4,0.9,0.9S156.2,359.7,155.7,359.7z"/>
	<path class="st2" d="M157.1,367.6c0,0.5-0.4,0.9-0.9,0.9s-0.9-0.4-0.9-0.9s0.4-0.9,0.9-0.9S157.1,367.1,157.1,367.6z"/>
	<path class="st2" d="M160.4,342c0-0.5,0.4-0.9,0.9-0.9s0.9,0.4,0.9,0.9s-0.4,0.9-0.9,0.9S160.4,342.5,160.4,342z"/>
	<path class="st2" d="M161.3,332.3c0.5,0,0.9,0.4,0.9,0.9s-0.4,0.9-0.9,0.9s-0.9-0.4-0.9-0.9S160.8,332.3,161.3,332.3z"/>
	<path class="st2" d="M162.4,350.5c0,0.5-0.4,0.9-0.9,0.9s-0.9-0.4-0.9-0.9s0.4-0.9,0.9-0.9S162.4,350.1,162.4,350.5z"/>
	<path class="st2" d="M167.5,367.6c0,0.5-0.4,0.9-0.9,0.9s-0.9-0.4-0.9-0.9s0.4-0.9,0.9-0.9S167.5,367.1,167.5,367.6z"/>
	<path class="st2" d="M167.7,359.1c0,0.5-0.4,0.9-0.9,0.9s-0.9-0.4-0.9-0.9s0.4-0.9,0.9-0.9S167.7,358.6,167.7,359.1z"/>
	<path class="st2" d="M170.9,342c0-0.5,0.4-0.9,0.9-0.9s0.9,0.4,0.9,0.9s-0.4,0.9-0.9,0.9S170.9,342.5,170.9,342z"/>
	<path class="st2" d="M171.8,332.3c0.5,0,0.9,0.4,0.9,0.9s-0.4,0.9-0.9,0.9s-0.9-0.4-0.9-0.9S171.3,332.3,171.8,332.3z"/>
	<path class="st2" d="M172.8,350.5c0,0.5-0.4,0.9-0.9,0.9s-0.9-0.4-0.9-0.9s0.4-0.9,0.9-0.9S172.8,350.1,172.8,350.5z"/>
	<path class="st2" d="M177.2,360c-0.5,0-0.9-0.4-0.9-0.9s0.4-0.9,0.9-0.9s0.9,0.4,0.9,0.9S177.7,360,177.2,360z"/>
	<path class="st2" d="M178.4,367.6c0,0.5-0.4,0.9-0.9,0.9s-0.9-0.4-0.9-0.9s0.4-0.9,0.9-0.9S178.4,367.1,178.4,367.6z"/>
	<path class="st2" d="M181.7,342c0-0.5,0.4-0.9,0.9-0.9s0.9,0.4,0.9,0.9s-0.4,0.9-0.9,0.9S181.7,342.5,181.7,342z"/>
	<path class="st2" d="M182.6,332.3c0.5,0,0.9,0.4,0.9,0.9s-0.4,0.9-0.9,0.9s-0.9-0.4-0.9-0.9S182.2,332.3,182.6,332.3z"/>
	<path class="st2" d="M183.7,350.5c0,0.5-0.4,0.9-0.9,0.9s-0.9-0.4-0.9-0.9s0.4-0.9,0.9-0.9S183.7,350.1,183.7,350.5z"/>
	<path class="st2" d="M181.6,46.4H27.7c-1.5,0-2.8,0.6-3.8,1.6c-0.9,0.9-1.5,2.2-1.5,3.6v127.4c0,2.9,2.3,5.2,5.2,5.2h143.4
		c4.9,0,9.4-2.3,12.2-5.9c2.2-2.7,3.5-6.1,3.5-9.9v-117C186.8,48.8,184.5,46.4,181.6,46.4L181.6,46.4L181.6,46.4z M133.8,161.6H88
		 M165.2,85.1v45.1 M165.2,130.2v31.4h-31.4"/>
	<path class="st2" d="M188.1,358.2c0.5,0,0.9,0.4,0.9,0.9s-0.4,0.9-0.9,0.9s-0.9-0.4-0.9-0.9S187.6,358.2,188.1,358.2z"/>
	<path class="st2" d="M193.5,340.8c0.5,0,0.9,0.4,0.9,0.9s-0.4,0.9-0.9,0.9s-0.9-0.4-0.9-0.9S193,340.8,193.5,340.8z"/>
	<path class="st2" d="M150.5,267.9c-9.9,3.6-20.9-1.4-24.5-11.3c-0.8-2.2-1.2-4.4-1.2-6.6c0-7.8,4.8-15.1,12.5-17.9l31.8-11.7
		c9.9-3.6,20.9,1.4,24.5,11.3c0.8,2.2,1.2,4.4,1.2,6.6c0,7.8-4.8,15.1-12.5,17.9L150.5,267.9L150.5,267.9z"/>
	<path class="st1" d="M191.7,1.5v21H22.5V1.7C78.9,1.6,135.3,1.5,191.7,1.5L191.7,1.5z"/>
	<path class="st1" d="M22.5,1.7v20.7H9.3V11.9c0.1-0.8,0.6-4,2.3-6c1.9-2.3,7.5-4.1,8.3-4.3C20.7,1.7,21.6,1.7,22.5,1.7L22.5,1.7z"
		/>
	<path class="st3" d="M213.5,13.8v8.6h-7.1c0-3.1,0-6.6,0-9.6c-0.1-1.1-0.4-4.2-2.8-7c-1.2-1.4-3.7-3.2-5.4-4.3c1.7,0,3.3,0,5,0
		c1,0.1,4.4,0.8,7.1,3.7C213.6,8.7,213.5,13,213.5,13.8z"/>
	<path class="st1" d="M206.3,12.8c0,3,0,6.6,0,9.6h-14.6v-21c2.1,0,4.3,0,6.5,0c1.7,1.1,4.2,2.9,5.4,4.3
		C206,8.6,206.3,11.7,206.3,12.8L206.3,12.8z"/>
	<path class="st3" d="M213.5,22.4v333c-0.6,2.8-2.5,9.6-8.6,15.7c-6.1,6.1-12.9,8-15.7,8.6h-3c3.1-1,9-4.2,15-13
		c3.6-5.4,4.5-10.8,4.9-14c0.1-109.9,0.1-219.7,0.2-329.6v-0.6L213.5,22.4L213.5,22.4z"/>
	<path class="st2" d="M181.6,46.4H27.7c-1.5,0-2.8,0.6-3.8,1.6c-0.9,0.9-1.5,2.2-1.5,3.6v127.4c0,2.9,2.3,5.2,5.2,5.2h143.4
		c4.9,0,9.4-2.3,12.2-5.9c2.2-2.7,3.5-6.1,3.5-9.9v-117C186.8,48.8,184.5,46.4,181.6,46.4L181.6,46.4L181.6,46.4z M133.8,161.6H88
		 M165.2,130.2v31.4h-31.4"/>
	<circle class="st2" cx="55" cy="242.1" r="35.8"/>
	<path class="st1" d="M194.8,238.3c0,7.8-4.8,15.1-12.5,17.9l-31.8,11.7c-9.9,3.6-20.9-1.4-24.5-11.3c-0.8-2.2-1.2-4.4-1.2-6.6
		c0-7.8,4.8-15.1,12.5-17.9l31.8-11.7c9.9-3.6,20.9,1.4,24.5,11.3C194.4,233.9,194.8,236.1,194.8,238.3L194.8,238.3L194.8,238.3z"/>
	<circle class="st2" cx="144.8" cy="249.8" r="11.2"/>
	<circle class="st2" cx="174.8" cy="238.6" r="11.2"/>
	<polygon class="st2" points="48.1,219.2 62.9,219.2 62.9,234.4 79.6,234.4 79.6,249.8 63.8,249.8 63.8,265.1 48.1,265.1 
		48.1,249.8 32.2,249.8 32.2,234.8 48.1,234.8 	"/>
	<path class="st1" d="M98.5,305.4l-17.2,9.9c-2.2,1.3-5,0.5-6.3-1.7l-0.3-0.5c-1.3-2.2-0.5-5,1.7-6.3l16.9-9.7
		c2.3-1.4,5.4-0.5,6.7,1.8l0.1,0.2C101.5,301.3,100.7,304.1,98.5,305.4L98.5,305.4L98.5,305.4z"/>
	<path class="st1" d="M132.4,305.3l-17.2,9.9c-2.2,1.3-5,0.5-6.3-1.7l-0.3-0.5c-1.3-2.2-0.5-5,1.7-6.3l16.9-9.7
		c2.3-1.4,5.4-0.5,6.7,1.8l0.1,0.2C135.3,301.3,134.6,304.1,132.4,305.3L132.4,305.3z"/>
	<path class="st4" d="M140.6,333.4c0,0.5-0.4,0.9-0.9,0.9s-0.9-0.4-0.9-0.9s0.4-0.9,0.9-0.9S140.6,332.9,140.6,333.4z"/>
	<path class="st4" d="M151.2,333.4c0,0.5-0.4,0.9-0.9,0.9s-0.9-0.4-0.9-0.9s0.4-0.9,0.9-0.9S151.2,332.9,151.2,333.4z"/>
	<path class="st4" d="M129.8,341.7c0,0.5-0.4,0.9-0.9,0.9s-0.9-0.4-0.9-0.9s0.4-0.9,0.9-0.9S129.8,341.2,129.8,341.7z"/>
	<path class="st4" d="M140.6,341.9c0,0.5-0.4,0.9-0.9,0.9s-0.9-0.4-0.9-0.9s0.4-0.9,0.9-0.9S140.6,341.4,140.6,341.9z"/>
	<path class="st4" d="M151.2,341.6c0,0.5-0.4,0.9-0.9,0.9s-0.9-0.4-0.9-0.9s0.4-0.9,0.9-0.9S151.2,341.1,151.2,341.6z"/>
	<path class="st4" d="M162.2,342c0,0.5-0.4,0.9-0.9,0.9s-0.9-0.4-0.9-0.9s0.4-0.9,0.9-0.9S162.2,341.5,162.2,342z"/>
	<path class="st4" d="M162.2,333.2c0,0.5-0.4,0.9-0.9,0.9s-0.9-0.4-0.9-0.9s0.4-0.9,0.9-0.9S162.2,332.7,162.2,333.2z"/>
	<path class="st4" d="M172.7,342c0,0.5-0.4,0.9-0.9,0.9s-0.9-0.4-0.9-0.9s0.4-0.9,0.9-0.9S172.7,341.5,172.7,342z"/>
	<path class="st4" d="M172.7,333.2c0,0.5-0.4,0.9-0.9,0.9s-0.9-0.4-0.9-0.9s0.4-0.9,0.9-0.9S172.7,332.7,172.7,333.2z"/>
	<path class="st4" d="M183.5,342c0,0.5-0.4,0.9-0.9,0.9s-0.9-0.4-0.9-0.9s0.4-0.9,0.9-0.9S183.5,341.5,183.5,342z"/>
	<path class="st4" d="M183.5,333.2c0,0.5-0.4,0.9-0.9,0.9s-0.9-0.4-0.9-0.9s0.4-0.9,0.9-0.9S183.5,332.7,183.5,333.2z"/>
	<path class="st4" d="M194.4,341.6c0,0.5-0.4,0.9-0.9,0.9s-0.9-0.4-0.9-0.9s0.4-0.9,0.9-0.9S194.4,341.1,194.4,341.6z"/>
	<path class="st4" d="M140.7,350.5c0,0.5-0.4,0.9-0.9,0.9s-0.9-0.4-0.9-0.9s0.4-0.9,0.9-0.9S140.7,350,140.7,350.5z"/>
	<path class="st4" d="M151.3,350.2c0,0.5-0.4,0.9-0.9,0.9s-0.9-0.4-0.9-0.9s0.4-0.9,0.9-0.9S151.3,349.7,151.3,350.2z"/>
	<path class="st4" d="M162.4,350.5c0,0.5-0.4,0.9-0.9,0.9s-0.9-0.4-0.9-0.9s0.4-0.9,0.9-0.9S162.4,350.1,162.4,350.5z"/>
	<path class="st4" d="M172.8,350.5c0,0.5-0.4,0.9-0.9,0.9s-0.9-0.4-0.9-0.9s0.4-0.9,0.9-0.9S172.8,350.1,172.8,350.5z"/>
	<path class="st4" d="M183.7,350.5c0,0.5-0.4,0.9-0.9,0.9s-0.9-0.4-0.9-0.9s0.4-0.9,0.9-0.9S183.7,350.1,183.7,350.5z"/>
	<path class="st4" d="M146,359c0,0.5-0.4,0.9-0.9,0.9s-0.9-0.4-0.9-0.9s0.4-0.9,0.9-0.9S146,358.6,146,359z"/>
	<path class="st4" d="M156.6,358.8c0,0.5-0.4,0.9-0.9,0.9s-0.9-0.4-0.9-0.9s0.4-0.9,0.9-0.9S156.6,358.3,156.6,358.8z"/>
	<path class="st4" d="M167.7,359.1c0,0.5-0.4,0.9-0.9,0.9s-0.9-0.4-0.9-0.9s0.4-0.9,0.9-0.9S167.7,358.6,167.7,359.1z"/>
	<path class="st4" d="M178.1,359.1c0,0.5-0.4,0.9-0.9,0.9s-0.9-0.4-0.9-0.9s0.4-0.9,0.9-0.9S178.1,358.6,178.1,359.1z"/>
	<path class="st4" d="M189,359.1c0,0.5-0.4,0.9-0.9,0.9s-0.9-0.4-0.9-0.9s0.4-0.9,0.9-0.9S189,358.6,189,359.1z"/>
	<path class="st4" d="M135.2,359.1c0,0.5-0.4,0.9-0.9,0.9s-0.9-0.4-0.9-0.9s0.4-0.9,0.9-0.9S135.2,358.6,135.2,359.1z"/>
	<path class="st4" d="M146.1,367.8c0,0.5-0.4,0.9-0.9,0.9s-0.9-0.4-0.9-0.9s0.4-0.9,0.9-0.9S146.1,367.3,146.1,367.8z"/>
	<path class="st4" d="M157.1,367.6c0,0.5-0.4,0.9-0.9,0.9s-0.9-0.4-0.9-0.9s0.4-0.9,0.9-0.9S157.1,367.1,157.1,367.6z"/>
	<path class="st4" d="M167.5,367.6c0,0.5-0.4,0.9-0.9,0.9s-0.9-0.4-0.9-0.9s0.4-0.9,0.9-0.9S167.5,367.1,167.5,367.6z"/>
	<path class="st4" d="M178.4,367.6c0,0.5-0.4,0.9-0.9,0.9s-0.9-0.4-0.9-0.9s0.4-0.9,0.9-0.9S178.4,367.1,178.4,367.6z"/>
	<line class="st2" x1="45.8" y1="107.1" x2="45.5" y2="107.5"/>
	<line class="st2" x1="45.8" y1="133.7" x2="45.5" y2="134.1"/>
	<line class="st2" x1="88" y1="161.6" x2="87.5" y2="162"/>
	<line class="st2" x1="165.6" y1="129.9" x2="165.2" y2="130.2"/>
	<line class="st2" x1="133.9" y1="161.6" x2="133.4" y2="162"/>
	<path class="st2" d="M198.2,1.4c-0.7-0.4-1.2-0.8-1.5-0.9"/>
</g>
<path class="st5" d="M210.1,4.7c-2.7-2.9-6.1-3.5-7.1-3.7c-2,0-4,0-6.1,0h0c-1.8,0-3.6,0-5.4,0C135.1,1.1,78.7,1.2,22.2,1.2
	c-3.8,0-7.7,0-11.5,0C9.6,1.5,7.4,2,5.2,3.7c-0.6,0.5-1.1,1-1.6,1.6l0,0c-1.6,2.1-2,4.1-2.2,5c0.1,3.9-0.1,7.8,0,11.7v0.4
	C1.3,138.2,1.2,253.9,1,369.6c0.1,0.9,0.6,4.2,3.5,6.8c2.9,2.6,6.2,2.9,7.1,2.9H15c57.2,0,114.5-0.1,171.7-0.1h2.2
	c2.8-0.6,9.6-2.5,15.7-8.6c0.4-0.4,0.7-0.8,1.1-1.1c0.2-0.2,0.4-0.5,0.6-0.7c4.7-5.5,6.3-11.3,6.9-13.8V13.4
	C213.3,12.6,213.4,8.2,210.1,4.7L210.1,4.7z"/>
<circle class="st6" cx="139.4" cy="333" r="0.9"/>
<circle class="st6" cx="150.4" cy="333.1" r="0.9"/>
<circle class="st6" cx="161.3" cy="332.9" r="0.9"/>
<circle class="st6" cx="171.7" cy="332.9" r="0.9"/>
<circle class="st6" cx="182.5" cy="332.9" r="0.9"/>
<g>
	<polygon class="st7" points="164.6,85.6 164.6,130.7 133.2,162.1 87.3,162.1 	"/>
	<polygon class="st8" points="164.6,67.8 164.6,85.6 87.3,162.1 45.2,162.1 45.2,134.3 114.8,67.8 	"/>
	<polygon class="st8" points="164.6,130.8 164.6,162.1 133.2,162.1 	"/>
	<polygon class="st8" points="86.8,67.8 45.2,107.6 45.2,67.8 	"/>
	<polygon class="st7" points="114.7,67.8 45.2,134.2 45.2,107.7 86.9,67.8 	"/>
</g>
<line class="st5" x1="1.5" y1="22" x2="213.2" y2="22"/>
<line class="st5" x1="191.5" y1="22" x2="191.5" y2="1"/>
<line class="st5" x1="22.2" y1="22" x2="22.2" y2="1"/>
<path class="st9" d="M181.3,46H27.5c-1.7,0-3.2,0.8-4.1,2c-0.7,0.9-1.1,2-1.1,3.2v127.5c0,2.9,2.3,5.2,5.2,5.2h143.4
	c4.7,0,9-2.1,11.9-5.4c2.4-2.8,3.8-6.4,3.8-10.3v-117C186.6,48.3,184.2,46,181.3,46L181.3,46z M165,161.6h-0.4v0.4H44.8V67.3h0.4
	v-0.4H165L165,161.6L165,161.6z"/>
<line class="st5" x1="32.3" y1="55.5" x2="92.2" y2="55.5"/>
<line class="st5" x1="160.8" y1="55.5" x2="178.2" y2="55.5"/>
<circle class="st10" cx="54.8" cy="241.6" r="35.5"/>
<circle class="st6" cx="128.6" cy="341.3" r="0.9"/>
<circle class="st6" cx="139.8" cy="341.5" r="0.9"/>
<circle class="st6" cx="150.4" cy="341.3" r="0.9"/>
<circle class="st6" cx="161.3" cy="341.6" r="0.9"/>
<circle class="st6" cx="171.7" cy="341.6" r="0.9"/>
<circle class="st6" cx="182.5" cy="341.6" r="0.9"/>
<circle class="st6" cx="193.3" cy="341.3" r="0.9"/>
<circle class="st6" cx="139.6" cy="350" r="0.9"/>
<circle class="st6" cx="150.5" cy="349.8" r="0.9"/>
<circle class="st6" cx="161.4" cy="350.1" r="0.9"/>
<circle class="st6" cx="171.8" cy="350.1" r="0.9"/>
<circle class="st6" cx="182.6" cy="350.1" r="0.9"/>
<circle class="st6" cx="145.2" cy="358.5" r="0.9"/>
<circle class="st6" cx="155.8" cy="358.3" r="0.9"/>
<circle class="st6" cx="166.7" cy="358.6" r="0.9"/>
<circle class="st6" cx="177.1" cy="358.6" r="0.9"/>
<circle class="st6" cx="187.9" cy="358.6" r="0.9"/>
<circle class="st6" cx="134.1" cy="358.7" r="0.9"/>
<circle class="st6" cx="145.2" cy="367.2" r="0.9"/>
<circle class="st6" cx="156.2" cy="367" r="0.9"/>
<circle class="st6" cx="166.6" cy="367" r="0.9"/>
<circle class="st6" cx="177.4" cy="367" r="0.9"/>
<rect x="2.5" y="23" class="st11" width="209.7" height="3.7"/>
<circle class="st12" cx="34" cy="107.1" r="2.2"/>
<g>
	<polygon class="st13" points="46.3,217.1 46.3,233.1 30.3,233.1 30.3,250.1 46.3,250.1 46.3,265.1 63.3,265.1 63.3,250.1 
		78.3,250.1 78.3,233.1 63.3,233.1 63.3,217.1 	"/>
	<rect x="47.3" y="218.1" class="st14" width="15" height="3"/>
	<rect x="31.3" y="234.1" class="st14" width="16" height="3"/>
	<rect x="62.3" y="234.1" class="st14" width="15" height="3"/>
	<rect x="47.3" y="261.1" class="st15" width="15" height="3"/>
</g>
</svg>
